<svg width="280" height="47" viewBox="0 0 280 47" fill="none" xmlns="http://www.w3.org/2000/svg">
<path d="M13.168 44.72C11.12 45.8293 8.13333 46.384 4.208 46.384C2.97067 46.384 1.776 46.2987 0.624 46.128C0.624 43.8667 1.79733 37.936 4.144 28.336C6.53333 18.736 7.728 12.272 7.728 8.944C7.728 8.09066 7.51467 7.19466 7.088 6.256C6.66133 5.27466 6.23467 4.528 5.808 4.016L5.104 3.184L5.36 1.904C8.38933 1.008 13.1467 0.559998 19.632 0.559998C20.2293 1.75466 20.528 3.26933 20.528 5.104C20.528 6.93866 19.632 12.016 17.84 20.336H18.224C21.296 20.336 23.6 18.9493 25.136 16.176C26.7147 13.36 27.9307 8.73067 28.784 2.288C32.5813 1.136 36.336 0.559998 40.048 0.559998C40.1333 0.901332 40.1547 1.84 40.112 3.376C40.0693 4.86933 39.664 6.87466 38.896 9.392C38.1707 11.9093 36.848 14.512 34.928 17.2C33.008 19.8453 30.6613 21.872 27.888 23.28C31.1307 34.4587 33.648 40.048 35.44 40.048C36.1227 40.048 37.2107 39.792 38.704 39.28L39.408 39.024L40.944 42.544C36.976 45.36 32.9653 46.768 28.912 46.768C24.8587 46.768 22.192 44.6773 20.912 40.496C19.632 36.2293 18.672 31.216 18.032 25.456H16.688C14.3413 35.8667 13.168 42.288 13.168 44.72ZM42.886 46.384H42.374C42.246 45.7867 42.182 44.8693 42.182 43.632C42.182 42.352 42.694 39.088 43.718 33.84C44.7847 28.5493 45.318 25.5627 45.318 24.88C45.318 24.1547 45.126 23.4293 44.742 22.704C44.358 21.936 43.974 21.36 43.59 20.976L43.014 20.4L43.142 19.44C45.702 18.6293 49.9473 18.224 55.878 18.224C56.4327 19.2907 56.774 20.5493 56.902 22C59.5047 19.0987 61.8087 17.648 63.814 17.648C66.4167 17.648 67.846 19.8453 68.102 24.24C68.0167 24.3253 67.91 24.4747 67.782 24.688C67.654 24.8587 67.3553 25.1787 66.886 25.648C66.4167 26.1173 65.926 26.544 65.414 26.928C63.9633 27.9093 62.4273 28.4853 60.806 28.656C60.7633 28.656 60.4647 28.1867 59.91 27.248C59.398 26.3093 58.95 25.84 58.566 25.84C58.2247 25.84 57.5633 26.224 56.582 26.992C56.454 27.76 56.198 29.0613 55.814 30.896C55.4727 32.7307 55.1953 34.2453 54.982 35.44C54.342 38.5973 54.022 41.2427 54.022 43.376L54.086 45.296C52.2087 46.0213 48.4753 46.384 42.886 46.384ZM66.0925 34.416C66.0925 29.1253 67.6925 25.008 70.8925 22.064C74.1352 19.12 78.1245 17.648 82.8605 17.648C86.1458 17.648 88.7698 18.3733 90.7325 19.824C92.7378 21.232 93.7405 23.1307 93.7405 25.52C93.7405 27.2693 93.2072 28.8267 92.1405 30.192C91.0738 31.5573 89.7725 32.6027 88.2365 33.328C84.9938 34.7787 82.1778 35.6533 79.7885 35.952L78.1885 36.144C78.6578 38.96 80.0658 40.368 82.4125 40.368C83.4365 40.368 84.5672 40.1547 85.8045 39.728C87.0418 39.2587 88.0232 38.7893 88.7485 38.32L89.8365 37.68L91.8845 40.432C91.8845 40.432 91.6498 40.6667 91.1805 41.136C90.9245 41.392 90.3058 41.904 89.3245 42.672C88.3858 43.3973 87.3832 44.0373 86.3165 44.592C85.2925 45.1467 83.9698 45.6373 82.3485 46.064C80.7272 46.5333 79.1058 46.768 77.4845 46.768C73.8578 46.768 71.0418 45.7227 69.0365 43.632C67.0738 41.4987 66.0925 38.4267 66.0925 34.416ZM77.9325 31.92C79.1698 31.7493 80.4072 30.7467 81.6445 28.912C82.8818 27.0347 83.5005 25.4773 83.5005 24.24C83.5005 22.96 83.1378 22.32 82.4125 22.32C81.3458 22.32 80.3645 23.152 79.4685 24.816C78.5725 26.48 78.0605 28.848 77.9325 31.92ZM96.5275 46.384H94.9275C94.9275 43.3547 95.5035 39.1307 96.6555 33.712C97.8502 28.2507 98.4475 25.2213 98.4475 24.624C98.4475 24.0267 98.2555 23.3653 97.8715 22.64C97.4875 21.9147 97.1035 21.36 96.7195 20.976L96.1435 20.4L96.2715 19.44C98.7462 18.6293 103.12 18.224 109.392 18.224C109.861 19.2053 110.181 20.2507 110.352 21.36C114.064 18.928 117.2 17.712 119.76 17.712C121.125 17.712 122.277 18.0747 123.216 18.8C124.197 19.5253 124.88 20.4853 125.264 21.68C128.805 19.0347 132.048 17.712 134.992 17.712C136.912 17.712 138.405 18.3093 139.472 19.504C140.581 20.656 141.136 22.064 141.136 23.728C141.136 25.3493 140.666 27.9947 139.728 31.664C138.789 35.3333 138.32 37.7013 138.32 38.768C138.32 39.792 138.49 40.304 138.832 40.304L142.16 39.472L143.312 42.672C142.032 43.696 140.261 44.6347 138 45.488C135.781 46.3413 133.776 46.768 131.984 46.768C128.314 46.768 126.479 44.912 126.479 41.2C126.479 39.6213 126.928 36.9333 127.824 33.136C128.72 29.3387 129.168 27.0347 129.168 26.224C129.168 25.3707 128.848 24.944 128.208 24.944C127.312 24.944 126.352 25.3067 125.328 26.032C125.2 26.672 124.858 28.208 124.304 30.64C123.109 36.1013 122.512 40.944 122.512 45.168C120.549 45.8933 116.73 46.256 111.056 46.256C110.928 45.7867 110.864 44.6773 110.864 42.928C110.864 41.1787 111.333 38.0853 112.272 33.648C113.21 29.2107 113.68 26.6507 113.68 25.968C113.68 25.2853 113.381 24.944 112.784 24.944C112.058 24.944 111.12 25.2853 109.968 25.968C109.84 26.6933 109.434 28.5493 108.752 31.536C107.301 37.808 106.576 42.3733 106.576 45.232C104.57 46 101.221 46.384 96.5275 46.384ZM144.53 34.416C144.53 29.1253 146.13 25.008 149.33 22.064C152.573 19.12 156.562 17.648 161.298 17.648C164.583 17.648 167.207 18.3733 169.17 19.824C171.175 21.232 172.178 23.1307 172.178 25.52C172.178 27.2693 171.645 28.8267 170.578 30.192C169.511 31.5573 168.21 32.6027 166.674 33.328C163.431 34.7787 160.615 35.6533 158.226 35.952L156.626 36.144C157.095 38.96 158.503 40.368 160.85 40.368C161.874 40.368 163.005 40.1547 164.242 39.728C165.479 39.2587 166.461 38.7893 167.186 38.32L168.274 37.68L170.322 40.432C170.322 40.432 170.087 40.6667 169.618 41.136C169.362 41.392 168.743 41.904 167.762 42.672C166.823 43.3973 165.821 44.0373 164.754 44.592C163.73 45.1467 162.407 45.6373 160.786 46.064C159.165 46.5333 157.543 46.768 155.922 46.768C152.295 46.768 149.479 45.7227 147.474 43.632C145.511 41.4987 144.53 38.4267 144.53 34.416ZM156.37 31.92C157.607 31.7493 158.845 30.7467 160.082 28.912C161.319 27.0347 161.938 25.4773 161.938 24.24C161.938 22.96 161.575 22.32 160.85 22.32C159.783 22.32 158.802 23.152 157.906 24.816C157.01 26.48 156.498 28.848 156.37 31.92ZM174.453 46.384H173.365C173.365 43.7387 173.962 39.728 175.157 34.352C176.394 28.976 177.013 25.8827 177.013 25.072C177.013 24.2613 176.821 23.472 176.437 22.704C176.053 21.936 175.669 21.36 175.285 20.976L174.709 20.4L174.837 19.44C177.354 18.6293 181.749 18.224 188.021 18.224C188.448 19.2053 188.746 20.2293 188.917 21.296C192.8 18.9067 196.064 17.712 198.709 17.712C200.501 17.712 201.909 18.3093 202.933 19.504C203.957 20.656 204.469 22.064 204.469 23.728C204.469 25.3493 204 27.9733 203.061 31.6C202.122 35.2267 201.653 37.5947 201.653 38.704C201.653 39.7707 201.802 40.304 202.101 40.304L205.493 39.408L206.645 42.608C205.28 43.632 203.488 44.592 201.269 45.488C199.093 46.3413 197.088 46.768 195.253 46.768C191.626 46.768 189.813 44.8907 189.813 41.136C189.813 39.5147 190.261 36.8693 191.157 33.2C192.053 29.5307 192.501 27.248 192.501 26.352C192.501 25.4133 192.202 24.944 191.605 24.944C190.837 24.944 189.813 25.3707 188.533 26.224C188.362 26.992 187.936 28.848 187.253 31.792C185.888 37.9787 185.205 42.4373 185.205 45.168C183.114 45.9787 179.53 46.384 174.453 46.384ZM207.843 34.416C207.843 29.1253 209.443 25.008 212.643 22.064C215.885 19.12 219.875 17.648 224.611 17.648C227.896 17.648 230.52 18.3733 232.483 19.824C234.488 21.232 235.491 23.1307 235.491 25.52C235.491 27.2693 234.957 28.8267 233.891 30.192C232.824 31.5573 231.523 32.6027 229.987 33.328C226.744 34.7787 223.928 35.6533 221.539 35.952L219.939 36.144C220.408 38.96 221.816 40.368 224.163 40.368C225.187 40.368 226.317 40.1547 227.555 39.728C228.792 39.2587 229.773 38.7893 230.499 38.32L231.587 37.68L233.635 40.432C233.635 40.432 233.4 40.6667 232.931 41.136C232.675 41.392 232.056 41.904 231.075 42.672C230.136 43.3973 229.133 44.0373 228.067 44.592C227.043 45.1467 225.72 45.6373 224.099 46.064C222.477 46.5333 220.856 46.768 219.235 46.768C215.608 46.768 212.792 45.7227 210.786 43.632C208.824 41.4987 207.843 38.4267 207.843 34.416ZM219.683 31.92C220.92 31.7493 222.157 30.7467 223.395 28.912C224.632 27.0347 225.251 25.4773 225.251 24.24C225.251 22.96 224.888 22.32 224.163 22.32C223.096 22.32 222.115 23.152 221.219 24.816C220.323 26.48 219.811 28.848 219.683 31.92ZM258.246 23.344L252.742 22.896C251.035 30.5333 250.096 34.9707 249.926 36.208C249.798 37.4453 249.734 38.4693 249.734 39.28C249.734 40.048 249.99 40.432 250.502 40.432C251.099 40.432 252.23 40.048 253.894 39.28L255.43 42.352C254.064 43.5893 252.336 44.6347 250.246 45.488C248.155 46.3413 246.128 46.768 244.166 46.768C242.246 46.768 240.71 46.2773 239.558 45.296C238.406 44.272 237.83 42.8427 237.83 41.008C237.83 39.1733 238.363 36.2293 239.43 32.176C240.496 28.1227 241.2 25.1147 241.542 23.152C240.518 23.2373 239.003 23.3867 236.998 23.6C236.827 22.704 236.742 21.872 236.742 21.104C236.742 20.2933 236.848 19.3973 237.062 18.416H242.182C242.224 17.8613 242.246 16.0053 242.246 12.848L242.118 10.224C246.256 8.85867 250.203 8.176 253.958 8.176C254.256 8.85866 254.406 10.0533 254.406 11.76C254.406 13.424 254.128 15.6427 253.574 18.416H259.334C259.334 20.1653 258.971 21.808 258.246 23.344ZM279.615 37.36C279.615 40.0053 278.377 42.2453 275.903 44.08C273.471 45.872 270.612 46.768 267.327 46.768C264.041 46.768 261.332 46.2133 259.199 45.104C257.108 43.9947 256.062 42.9493 256.062 41.968C256.062 40.944 256.703 39.664 257.983 38.128C259.305 36.5493 260.649 35.632 262.015 35.376C263.977 36.4427 265.748 38.8107 267.327 42.48C268.564 42.48 269.183 42.0747 269.183 41.264C269.183 40.6667 269.012 40.112 268.671 39.6C268.329 39.088 268.073 38.6827 267.903 38.384C267.732 38.0853 267.433 37.68 267.007 37.168C266.58 36.6133 266.26 36.208 266.047 35.952C264.98 34.672 264.02 33.4987 263.167 32.432C261.119 29.872 260.095 27.632 260.095 25.712C260.095 23.7493 260.713 22.1493 261.951 20.912C264.084 18.736 267.22 17.648 271.359 17.648C273.961 17.648 276.031 18.16 277.567 19.184C279.103 20.1653 279.871 21.6587 279.871 23.664C279.871 25.6267 278.697 27.888 276.351 30.448C278.527 32.9653 279.615 35.2693 279.615 37.36ZM275.327 25.648C275.839 24.8373 276.095 24.112 276.095 23.472C276.095 22.832 275.817 22.3413 275.263 22C274.708 21.6587 274.047 21.488 273.279 21.488C272.511 21.488 271.913 21.68 271.487 22.064C271.103 22.4053 270.911 22.8747 270.911 23.472C270.911 24.0693 271.828 25.392 273.663 27.44C274.26 27.0133 274.815 26.416 275.327 25.648Z" fill="white"/>
</svg>
