<svg width="305" height="82" viewBox="0 0 305 82" fill="none" xmlns="http://www.w3.org/2000/svg">
<path d="M0.492 2.296H7.836C11.028 2.296 13.452 2.776 15.108 3.736C16.764 4.696 17.592 6.34 17.592 8.668C17.592 10.18 17.172 11.44 16.332 12.448C15.492 13.432 14.28 14.068 12.696 14.356V14.536C13.776 14.728 14.748 15.052 15.612 15.508C16.5 15.964 17.196 16.612 17.7 17.452C18.204 18.292 18.456 19.372 18.456 20.692C18.456 23.02 17.652 24.82 16.044 26.092C14.46 27.364 12.288 28 9.528 28H0.492V2.296ZM3.732 13.24H8.484C10.668 13.24 12.168 12.892 12.984 12.196C13.824 11.476 14.244 10.42 14.244 9.028C14.244 7.612 13.74 6.604 12.732 6.004C11.748 5.38 10.164 5.068 7.98 5.068H3.732V13.24ZM3.732 15.94V25.264H8.916C11.196 25.264 12.78 24.82 13.668 23.932C14.556 23.044 15 21.88 15 20.44C15 19.096 14.532 18.016 13.596 17.2C12.684 16.36 11.04 15.94 8.664 15.94H3.732ZM26.6421 28H23.4741V8.704H26.6421V28ZM47.0833 8.704V25.336H49.8913V34.696H46.8313V28H33.4033V34.696H30.3793V25.336H31.9273C33.5833 23.056 34.8193 20.464 35.6353 17.56C36.4753 14.632 36.9073 11.68 36.9313 8.704H47.0833ZM44.0233 11.188H39.7393C39.6193 12.82 39.3553 14.512 38.9473 16.264C38.5633 17.992 38.0473 19.648 37.3993 21.232C36.7753 22.816 36.0433 24.184 35.2033 25.336H44.0233V11.188ZM65.0853 8.704H68.5413L60.2973 17.992L69.2253 28H65.5533L56.8413 18.208V28H53.6733V8.704H56.8413V18.064L65.0853 8.704ZM81.908 8.344C84.284 8.344 86.192 9.172 87.632 10.828C89.096 12.484 89.828 14.98 89.828 18.316C89.828 21.604 89.096 24.1 87.632 25.804C86.192 27.508 84.272 28.36 81.872 28.36C80.384 28.36 79.148 28.084 78.164 27.532C77.204 26.98 76.448 26.32 75.896 25.552H75.68C75.704 25.96 75.74 26.476 75.788 27.1C75.86 27.724 75.896 28.264 75.896 28.72V36.64H72.728V8.704H75.32L75.752 11.332H75.896C76.472 10.492 77.228 9.784 78.164 9.208C79.1 8.632 80.348 8.344 81.908 8.344ZM81.332 11.008C79.364 11.008 77.972 11.56 77.156 12.664C76.34 13.768 75.92 15.448 75.896 17.704V18.316C75.896 20.692 76.28 22.528 77.048 23.824C77.84 25.096 79.292 25.732 81.404 25.732C82.556 25.732 83.516 25.42 84.284 24.796C85.052 24.148 85.616 23.26 85.976 22.132C86.36 21.004 86.552 19.72 86.552 18.28C86.552 16.072 86.12 14.308 85.256 12.988C84.416 11.668 83.108 11.008 81.332 11.008ZM97.8644 8.704V20.476C97.8644 20.788 97.8524 21.232 97.8284 21.808C97.8044 22.36 97.7684 22.936 97.7204 23.536C97.6964 24.112 97.6724 24.556 97.6484 24.868L107.98 8.704H111.868V28H108.916V16.624C108.916 16.24 108.916 15.736 108.916 15.112C108.94 14.488 108.964 13.876 108.988 13.276C109.012 12.652 109.036 12.184 109.06 11.872L98.8004 28H94.8764V8.704H97.8644ZM120.997 8.704V20.476C120.997 20.788 120.985 21.232 120.961 21.808C120.937 22.36 120.901 22.936 120.853 23.536C120.829 24.112 120.805 24.556 120.781 24.868L131.113 8.704H135.001V28H132.049V16.624C132.049 16.24 132.049 15.736 132.049 15.112C132.073 14.488 132.097 13.876 132.121 13.276C132.145 12.652 132.169 12.184 132.193 11.872L121.933 28H118.009V8.704H120.997ZM133.633 0.711999C133.465 2.512 132.853 3.88 131.797 4.816C130.765 5.728 129.109 6.184 126.829 6.184C124.477 6.184 122.809 5.728 121.825 4.816C120.865 3.904 120.325 2.536 120.205 0.711999H123.157C123.277 2.008 123.613 2.884 124.165 3.34C124.717 3.772 125.629 3.988 126.901 3.988C128.005 3.988 128.869 3.76 129.493 3.304C130.141 2.824 130.525 1.96 130.645 0.711999H133.633ZM168.794 8.704V25.336H171.602V34.696H168.542V28H155.114V34.696H152.09V25.336H153.638C155.294 23.056 156.53 20.464 157.346 17.56C158.186 14.632 158.618 11.68 158.642 8.704H168.794ZM165.734 11.188H161.45C161.33 12.82 161.066 14.512 160.658 16.264C160.274 17.992 159.758 19.648 159.11 21.232C158.486 22.816 157.754 24.184 156.914 25.336H165.734V11.188ZM190.072 28H186.868V11.332H181.18C180.868 15.388 180.436 18.664 179.884 21.16C179.332 23.632 178.588 25.432 177.652 26.56C176.74 27.688 175.6 28.252 174.232 28.252C173.92 28.252 173.608 28.228 173.296 28.18C173.008 28.156 172.768 28.096 172.576 28V25.624C172.72 25.672 172.876 25.708 173.044 25.732C173.212 25.756 173.38 25.768 173.548 25.768C174.844 25.768 175.876 24.388 176.644 21.628C177.436 18.868 178.036 14.56 178.444 8.704H190.072V28ZM197.385 28H193.713L199.221 19.9C198.477 19.732 197.757 19.432 197.061 19C196.365 18.568 195.801 17.98 195.369 17.236C194.937 16.492 194.721 15.544 194.721 14.392C194.721 12.568 195.345 11.164 196.593 10.18C197.841 9.196 199.497 8.704 201.561 8.704H210.201V28H207.033V20.332H202.353L197.385 28ZM197.781 14.428C197.781 15.556 198.189 16.384 199.005 16.912C199.845 17.44 201.009 17.704 202.497 17.704H207.033V11.332H201.885C200.421 11.332 199.365 11.632 198.717 12.232C198.093 12.808 197.781 13.54 197.781 14.428ZM237.37 28.36C235.642 28.36 234.118 28.012 232.798 27.316C231.478 26.62 230.434 25.54 229.666 24.076C228.922 22.612 228.55 20.74 228.55 18.46C228.55 16.084 228.934 14.152 229.702 12.664C230.494 11.176 231.574 10.084 232.942 9.388C234.31 8.692 235.858 8.344 237.586 8.344C238.546 8.344 239.482 8.452 240.394 8.668C241.33 8.86 242.086 9.1 242.662 9.388L241.69 12.016C241.114 11.8 240.442 11.596 239.674 11.404C238.906 11.212 238.186 11.116 237.514 11.116C233.722 11.116 231.826 13.552 231.826 18.424C231.826 20.752 232.282 22.54 233.194 23.788C234.13 25.012 235.51 25.624 237.334 25.624C238.366 25.624 239.29 25.516 240.106 25.3C240.922 25.084 241.666 24.82 242.338 24.508V27.316C241.69 27.652 240.97 27.904 240.178 28.072C239.41 28.264 238.474 28.36 237.37 28.36ZM254.379 8.344C256.011 8.344 257.427 8.704 258.627 9.424C259.827 10.144 260.739 11.164 261.363 12.484C262.011 13.78 262.335 15.304 262.335 17.056V18.964H249.123C249.171 21.148 249.723 22.816 250.779 23.968C251.859 25.096 253.359 25.66 255.279 25.66C256.503 25.66 257.583 25.552 258.519 25.336C259.479 25.096 260.463 24.76 261.471 24.328V27.1C260.487 27.532 259.515 27.844 258.555 28.036C257.595 28.252 256.455 28.36 255.135 28.36C253.287 28.36 251.667 27.988 250.275 27.244C248.883 26.5 247.791 25.396 246.999 23.932C246.231 22.468 245.847 20.656 245.847 18.496C245.847 16.384 246.195 14.572 246.891 13.06C247.611 11.548 248.607 10.384 249.879 9.568C251.175 8.752 252.675 8.344 254.379 8.344ZM254.343 10.936C252.831 10.936 251.631 11.428 250.743 12.412C249.879 13.372 249.363 14.716 249.195 16.444H259.023C258.999 14.812 258.615 13.492 257.871 12.484C257.127 11.452 255.951 10.936 254.343 10.936ZM266.24 16.408C266.24 12.184 266.876 8.896 268.148 6.544C269.42 4.192 271.472 2.704 274.304 2.08C275.864 1.744 277.388 1.444 278.876 1.18C280.364 0.915998 281.756 0.675998 283.052 0.459998L283.592 3.232C282.752 3.376 281.804 3.532 280.748 3.7C279.692 3.868 278.648 4.048 277.616 4.24C276.584 4.432 275.696 4.6 274.952 4.744C273.392 5.08 272.156 5.896 271.244 7.192C270.332 8.488 269.816 10.48 269.696 13.168H269.912C270.248 12.712 270.704 12.244 271.28 11.764C271.88 11.284 272.588 10.876 273.404 10.54C274.244 10.204 275.192 10.036 276.248 10.036C278.744 10.036 280.628 10.84 281.9 12.448C283.172 14.056 283.808 16.144 283.808 18.712C283.808 20.872 283.436 22.672 282.691 24.112C281.948 25.528 280.904 26.596 279.56 27.316C278.24 28.012 276.716 28.36 274.988 28.36C272.324 28.36 270.2 27.34 268.616 25.3C267.032 23.26 266.24 20.296 266.24 16.408ZM275.24 25.732C276.8 25.732 278.06 25.228 279.02 24.22C279.98 23.212 280.46 21.484 280.46 19.036C280.46 17.068 280.088 15.52 279.344 14.392C278.624 13.24 277.424 12.664 275.744 12.664C274.664 12.664 273.692 12.904 272.828 13.384C271.988 13.84 271.268 14.368 270.668 14.968C270.092 15.568 269.696 16.072 269.479 16.48C269.479 17.656 269.564 18.796 269.732 19.9C269.9 21.004 270.188 22 270.596 22.888C271.028 23.752 271.616 24.448 272.36 24.976C273.128 25.48 274.088 25.732 275.24 25.732ZM296.25 8.344C297.882 8.344 299.298 8.704 300.498 9.424C301.698 10.144 302.61 11.164 303.234 12.484C303.882 13.78 304.206 15.304 304.206 17.056V18.964H290.994C291.042 21.148 291.594 22.816 292.65 23.968C293.73 25.096 295.23 25.66 297.15 25.66C298.374 25.66 299.454 25.552 300.39 25.336C301.35 25.096 302.334 24.76 303.342 24.328V27.1C302.358 27.532 301.386 27.844 300.426 28.036C299.466 28.252 298.326 28.36 297.006 28.36C295.158 28.36 293.538 27.988 292.146 27.244C290.754 26.5 289.662 25.396 288.87 23.932C288.102 22.468 287.718 20.656 287.718 18.496C287.718 16.384 288.066 14.572 288.762 13.06C289.482 11.548 290.478 10.384 291.75 9.568C293.046 8.752 294.546 8.344 296.25 8.344ZM296.214 10.936C294.702 10.936 293.502 11.428 292.614 12.412C291.75 13.372 291.234 14.716 291.066 16.444H300.894C300.87 14.812 300.486 13.492 299.742 12.484C298.998 11.452 297.822 10.936 296.214 10.936ZM19.248 73H15.36L3.732 59.968V73H0.492V47.296H3.732V59.752L15.072 47.296H18.744L7.584 59.788L19.248 73ZM31.4939 53.344C33.8699 53.344 35.7779 54.172 37.2179 55.828C38.6819 57.484 39.4139 59.98 39.4139 63.316C39.4139 66.604 38.6819 69.1 37.2179 70.804C35.7779 72.508 33.8579 73.36 31.4579 73.36C29.9699 73.36 28.7339 73.084 27.7499 72.532C26.7899 71.98 26.0339 71.32 25.4819 70.552H25.2659C25.2899 70.96 25.3259 71.476 25.3739 72.1C25.4459 72.724 25.4819 73.264 25.4819 73.72V81.64H22.3139V53.704H24.9059L25.3379 56.332H25.4819C26.0579 55.492 26.8139 54.784 27.7499 54.208C28.6859 53.632 29.9339 53.344 31.4939 53.344ZM30.9179 56.008C28.9499 56.008 27.5579 56.56 26.7419 57.664C25.9259 58.768 25.5059 60.448 25.4819 62.704V63.316C25.4819 65.692 25.8659 67.528 26.6339 68.824C27.4259 70.096 28.8779 70.732 30.9899 70.732C32.1419 70.732 33.1019 70.42 33.8699 69.796C34.6379 69.148 35.2019 68.26 35.5619 67.132C35.9459 66.004 36.1379 64.72 36.1379 63.28C36.1379 61.072 35.7059 59.308 34.8419 57.988C34.0019 56.668 32.6939 56.008 30.9179 56.008ZM51.9143 53.344C53.5463 53.344 54.9623 53.704 56.1623 54.424C57.3623 55.144 58.2743 56.164 58.8983 57.484C59.5463 58.78 59.8703 60.304 59.8703 62.056V63.964H46.6583C46.7063 66.148 47.2583 67.816 48.3143 68.968C49.3943 70.096 50.8943 70.66 52.8143 70.66C54.0383 70.66 55.1183 70.552 56.0543 70.336C57.0143 70.096 57.9983 69.76 59.0063 69.328V72.1C58.0223 72.532 57.0503 72.844 56.0903 73.036C55.1303 73.252 53.9903 73.36 52.6703 73.36C50.8223 73.36 49.2023 72.988 47.8103 72.244C46.4183 71.5 45.3263 70.396 44.5343 68.932C43.7663 67.468 43.3823 65.656 43.3823 63.496C43.3823 61.384 43.7303 59.572 44.4263 58.06C45.1463 56.548 46.1423 55.384 47.4143 54.568C48.7103 53.752 50.2103 53.344 51.9143 53.344ZM51.8783 55.936C50.3663 55.936 49.1663 56.428 48.2783 57.412C47.4143 58.372 46.8983 59.716 46.7303 61.444H56.5583C56.5343 59.812 56.1503 58.492 55.4063 57.484C54.6623 56.452 53.4863 55.936 51.8783 55.936ZM85.4827 53.704V73H82.6387V60.688C82.6387 60.184 82.6507 59.668 82.6747 59.14C82.7227 58.588 82.7707 58.036 82.8187 57.484H82.7107L76.4107 73H73.7467L67.6267 57.484H67.5187C67.5907 58.564 67.6267 59.668 67.6267 60.796V73H64.7827V53.704H68.9947L75.0787 69.22L81.2707 53.704H85.4827ZM99.094 53.344C100.726 53.344 102.142 53.704 103.342 54.424C104.542 55.144 105.454 56.164 106.078 57.484C106.726 58.78 107.05 60.304 107.05 62.056V63.964H93.838C93.886 66.148 94.438 67.816 95.494 68.968C96.574 70.096 98.074 70.66 99.994 70.66C101.218 70.66 102.298 70.552 103.234 70.336C104.194 70.096 105.178 69.76 106.186 69.328V72.1C105.202 72.532 104.23 72.844 103.27 73.036C102.31 73.252 101.17 73.36 99.85 73.36C98.002 73.36 96.382 72.988 94.99 72.244C93.598 71.5 92.506 70.396 91.714 68.932C90.946 67.468 90.562 65.656 90.562 63.496C90.562 61.384 90.91 59.572 91.606 58.06C92.326 56.548 93.322 55.384 94.594 54.568C95.89 53.752 97.39 53.344 99.094 53.344ZM99.058 55.936C97.546 55.936 96.346 56.428 95.458 57.412C94.594 58.372 94.078 59.716 93.91 61.444H103.738C103.714 59.812 103.33 58.492 102.586 57.484C101.842 56.452 100.666 55.936 99.058 55.936ZM115.13 53.704V61.732H125.606V53.704H128.774V73H125.606V64.396H115.13V73H111.962V53.704H115.13ZM142.336 53.344C143.968 53.344 145.384 53.704 146.584 54.424C147.784 55.144 148.696 56.164 149.32 57.484C149.968 58.78 150.292 60.304 150.292 62.056V63.964H137.08C137.128 66.148 137.68 67.816 138.736 68.968C139.816 70.096 141.316 70.66 143.236 70.66C144.46 70.66 145.54 70.552 146.476 70.336C147.436 70.096 148.42 69.76 149.428 69.328V72.1C148.444 72.532 147.472 72.844 146.512 73.036C145.552 73.252 144.412 73.36 143.092 73.36C141.244 73.36 139.624 72.988 138.232 72.244C136.84 71.5 135.748 70.396 134.956 68.932C134.188 67.468 133.804 65.656 133.804 63.496C133.804 61.384 134.152 59.572 134.848 58.06C135.568 56.548 136.564 55.384 137.836 54.568C139.132 53.752 140.632 53.344 142.336 53.344ZM142.3 55.936C140.788 55.936 139.588 56.428 138.7 57.412C137.836 58.372 137.32 59.716 137.152 61.444H146.98C146.956 59.812 146.572 58.492 145.828 57.484C145.084 56.452 143.908 55.936 142.3 55.936ZM157.977 53.704V60.724C157.977 62.932 159.213 64.036 161.685 64.036C162.885 64.036 163.977 63.856 164.961 63.496C165.945 63.112 166.953 62.608 167.985 61.984V53.704H171.153V73H167.985V64.396C166.905 65.092 165.837 65.644 164.781 66.052C163.749 66.436 162.501 66.628 161.037 66.628C159.045 66.628 157.509 66.112 156.429 65.08C155.349 64.048 154.809 62.668 154.809 60.94V53.704H157.977ZM180.055 53.704V60.724C180.055 62.932 181.291 64.036 183.763 64.036C184.963 64.036 186.055 63.856 187.039 63.496C188.023 63.112 189.031 62.608 190.063 61.984V53.704H193.231V73H190.063V64.396C188.983 65.092 187.915 65.644 186.859 66.052C185.827 66.436 184.579 66.628 183.115 66.628C181.123 66.628 179.587 66.112 178.507 65.08C177.427 64.048 176.887 62.668 176.887 60.94V53.704H180.055ZM202.349 53.704V65.476C202.349 65.788 202.337 66.232 202.313 66.808C202.289 67.36 202.253 67.936 202.205 68.536C202.181 69.112 202.157 69.556 202.133 69.868L212.465 53.704H216.353V73H213.401V61.624C213.401 61.24 213.401 60.736 213.401 60.112C213.425 59.488 213.449 58.876 213.473 58.276C213.497 57.652 213.521 57.184 213.545 56.872L203.285 73H199.361V53.704H202.349ZM225.662 53.704V61.732H236.138V53.704H239.306V73H236.138V64.396H225.662V73H222.494V53.704H225.662ZM242.391 53.704H245.775L249.951 64.684C250.311 65.668 250.635 66.592 250.923 67.456C251.211 68.32 251.427 69.148 251.571 69.94H251.715C251.859 69.34 252.087 68.56 252.399 67.6C252.711 66.616 253.035 65.632 253.371 64.648L257.295 53.704H260.715L252.399 75.664C251.703 77.488 250.827 78.94 249.771 80.02C248.715 81.1 247.251 81.64 245.379 81.64C244.803 81.64 244.299 81.604 243.867 81.532C243.435 81.484 243.063 81.424 242.751 81.352V78.832C243.015 78.88 243.327 78.928 243.687 78.976C244.071 79.024 244.467 79.048 244.875 79.048C245.979 79.048 246.867 78.736 247.539 78.112C248.211 77.488 248.751 76.66 249.159 75.628L250.167 73.072L242.391 53.704Z" fill="url(#paint0_angular)" style="mix-blend-mode:color-dodge"/>
<defs>
<radialGradient id="paint0_angular" cx="0" cy="0" r="1" gradientUnits="userSpaceOnUse" gradientTransform="translate(208.125 66.4048) rotate(121.186) scale(59.1418 177.341)">
<stop offset="0.00205982" stop-color="white"/>
<stop offset="0.999348" stop-color="#CFCFCF" stop-opacity="0.36"/>
</radialGradient>
</defs>
</svg>
