<svg width="406" height="109" viewBox="0 0 406 109" fill="none" xmlns="http://www.w3.org/2000/svg">
<path d="M0.656 2.728H10.448C14.704 2.728 17.936 3.368 20.144 4.648C22.352 5.928 23.456 8.12 23.456 11.224C23.456 13.24 22.896 14.92 21.776 16.264C20.656 17.576 19.04 18.424 16.928 18.808V19.048C18.368 19.304 19.664 19.736 20.816 20.344C22 20.952 22.928 21.816 23.6 22.936C24.272 24.056 24.608 25.496 24.608 27.256C24.608 30.36 23.536 32.76 21.392 34.456C19.28 36.152 16.384 37 12.704 37H0.656V2.728ZM4.976 17.32H11.312C14.224 17.32 16.224 16.856 17.312 15.928C18.432 14.968 18.992 13.56 18.992 11.704C18.992 9.816 18.32 8.472 16.976 7.672C15.664 6.84 13.552 6.424 10.64 6.424H4.976V17.32ZM4.976 20.92V33.352H11.888C14.928 33.352 17.04 32.76 18.224 31.576C19.408 30.392 20 28.84 20 26.92C20 25.128 19.376 23.688 18.128 22.6C16.912 21.48 14.72 20.92 11.552 20.92H4.976ZM35.5228 37H31.2988V11.272H35.5228V37ZM62.7778 11.272V33.448H66.5218V45.928H62.4418V37H44.5378V45.928H40.5058V33.448H42.5698C44.7778 30.408 46.4258 26.952 47.5138 23.08C48.6338 19.176 49.2098 15.24 49.2418 11.272H62.7778ZM58.6978 14.584H52.9858C52.8258 16.76 52.4738 19.016 51.9297 21.352C51.4178 23.656 50.7298 25.864 49.8658 27.976C49.0338 30.088 48.0578 31.912 46.9378 33.448H58.6978V14.584ZM86.7804 11.272H91.3884L80.3964 23.656L92.3004 37H87.4044L75.7884 23.944V37H71.5644V11.272H75.7884V23.752L86.7804 11.272ZM109.211 10.792C112.379 10.792 114.923 11.896 116.843 14.104C118.795 16.312 119.771 19.64 119.771 24.088C119.771 28.472 118.795 31.8 116.843 34.072C114.923 36.344 112.363 37.48 109.163 37.48C107.179 37.48 105.531 37.112 104.219 36.376C102.939 35.64 101.931 34.76 101.195 33.736H100.907C100.939 34.28 100.987 34.968 101.051 35.8C101.147 36.632 101.195 37.352 101.195 37.96V48.52H96.9706V11.272H100.427L101.003 14.776H101.195C101.963 13.656 102.971 12.712 104.219 11.944C105.467 11.176 107.131 10.792 109.211 10.792ZM108.443 14.344C105.819 14.344 103.963 15.08 102.875 16.552C101.787 18.024 101.227 20.264 101.195 23.272V24.088C101.195 27.256 101.707 29.704 102.731 31.432C103.787 33.128 105.723 33.976 108.539 33.976C110.075 33.976 111.355 33.56 112.379 32.728C113.403 31.864 114.155 30.68 114.635 29.176C115.147 27.672 115.403 25.96 115.403 24.04C115.403 21.096 114.827 18.744 113.675 16.984C112.555 15.224 110.811 14.344 108.443 14.344ZM130.486 11.272V26.968C130.486 27.384 130.47 27.976 130.438 28.744C130.406 29.48 130.358 30.248 130.294 31.048C130.262 31.816 130.23 32.408 130.198 32.824L143.974 11.272H149.158V37H145.222V21.832C145.222 21.32 145.222 20.648 145.222 19.816C145.254 18.984 145.286 18.168 145.318 17.368C145.35 16.536 145.382 15.912 145.414 15.496L131.734 37H126.502V11.272H130.486ZM161.33 11.272V26.968C161.33 27.384 161.314 27.976 161.282 28.744C161.25 29.48 161.202 30.248 161.138 31.048C161.106 31.816 161.074 32.408 161.042 32.824L174.818 11.272H180.002V37H176.066V21.832C176.066 21.32 176.066 20.648 176.066 19.816C176.098 18.984 176.13 18.168 176.162 17.368C176.194 16.536 176.226 15.912 176.258 15.496L162.578 37H157.346V11.272H161.33ZM178.178 0.615999C177.954 3.016 177.138 4.84 175.73 6.088C174.354 7.304 172.146 7.912 169.106 7.912C165.97 7.912 163.746 7.304 162.434 6.088C161.154 4.872 160.434 3.048 160.274 0.615999H164.21C164.37 2.344 164.818 3.512 165.554 4.12C166.29 4.696 167.506 4.984 169.202 4.984C170.674 4.984 171.826 4.68 172.658 4.072C173.522 3.432 174.034 2.28 174.194 0.615999H178.178ZM225.059 11.272V33.448H228.803V45.928H224.723V37H206.819V45.928H202.787V33.448H204.851C207.059 30.408 208.707 26.952 209.795 23.08C210.915 19.176 211.491 15.24 211.523 11.272H225.059ZM220.979 14.584H215.267C215.107 16.76 214.755 19.016 214.211 21.352C213.699 23.656 213.011 25.864 212.147 27.976C211.315 30.088 210.339 31.912 209.219 33.448H220.979V14.584ZM253.43 37H249.158V14.776H241.574C241.158 20.184 240.582 24.552 239.846 27.88C239.11 31.176 238.118 33.576 236.87 35.08C235.654 36.584 234.134 37.336 232.31 37.336C231.894 37.336 231.478 37.304 231.062 37.24C230.678 37.208 230.358 37.128 230.102 37V33.832C230.294 33.896 230.502 33.944 230.726 33.976C230.95 34.008 231.174 34.024 231.398 34.024C233.126 34.024 234.502 32.184 235.526 28.504C236.582 24.824 237.382 19.08 237.926 11.272H253.43V37ZM263.18 37H258.284L265.628 26.2C264.636 25.976 263.676 25.576 262.748 25C261.82 24.424 261.068 23.64 260.492 22.648C259.916 21.656 259.628 20.392 259.628 18.856C259.628 16.424 260.46 14.552 262.124 13.24C263.788 11.928 265.996 11.272 268.748 11.272H280.268V37H276.044V26.776H269.804L263.18 37ZM263.708 18.904C263.708 20.408 264.252 21.512 265.34 22.216C266.46 22.92 268.012 23.272 269.996 23.272H276.044V14.776H269.18C267.228 14.776 265.82 15.176 264.956 15.976C264.124 16.744 263.708 17.72 263.708 18.904ZM316.494 37.48C314.19 37.48 312.158 37.016 310.398 36.088C308.638 35.16 307.246 33.72 306.222 31.768C305.23 29.816 304.734 27.32 304.734 24.28C304.734 21.112 305.246 18.536 306.27 16.552C307.326 14.568 308.766 13.112 310.59 12.184C312.414 11.256 314.478 10.792 316.782 10.792C318.062 10.792 319.31 10.936 320.526 11.224C321.774 11.48 322.782 11.8 323.55 12.184L322.254 15.688C321.486 15.4 320.59 15.128 319.566 14.872C318.542 14.616 317.582 14.488 316.686 14.488C311.63 14.488 309.102 17.736 309.102 24.232C309.102 27.336 309.71 29.72 310.926 31.384C312.174 33.016 314.014 33.832 316.446 33.832C317.822 33.832 319.054 33.688 320.142 33.4C321.23 33.112 322.222 32.76 323.118 32.344V36.088C322.254 36.536 321.294 36.872 320.238 37.096C319.214 37.352 317.966 37.48 316.494 37.48ZM339.172 10.792C341.348 10.792 343.236 11.272 344.836 12.232C346.436 13.192 347.652 14.552 348.484 16.312C349.348 18.04 349.78 20.072 349.78 22.408V24.952H332.164C332.228 27.864 332.964 30.088 334.372 31.624C335.812 33.128 337.812 33.88 340.372 33.88C342.004 33.88 343.444 33.736 344.692 33.448C345.972 33.128 347.284 32.68 348.628 32.104V35.8C347.316 36.376 346.02 36.792 344.74 37.048C343.46 37.336 341.94 37.48 340.18 37.48C337.716 37.48 335.556 36.984 333.7 35.992C331.844 35 330.388 33.528 329.332 31.576C328.308 29.624 327.796 27.208 327.796 24.328C327.796 21.512 328.26 19.096 329.188 17.08C330.148 15.064 331.476 13.512 333.172 12.424C334.9 11.336 336.9 10.792 339.172 10.792ZM339.124 14.248C337.108 14.248 335.508 14.904 334.324 16.216C333.172 17.496 332.484 19.288 332.26 21.592H345.364C345.332 19.416 344.82 17.656 343.828 16.312C342.836 14.936 341.268 14.248 339.124 14.248ZM354.986 21.544C354.986 15.912 355.834 11.528 357.53 8.392C359.226 5.256 361.962 3.272 365.738 2.44C367.818 1.992 369.85 1.592 371.834 1.24C373.818 0.887998 375.674 0.567998 377.402 0.279998L378.122 3.976C377.002 4.168 375.738 4.376 374.33 4.6C372.922 4.824 371.53 5.064 370.154 5.32C368.778 5.576 367.594 5.8 366.602 5.992C364.522 6.44 362.874 7.528 361.658 9.256C360.442 10.984 359.754 13.64 359.594 17.224H359.882C360.33 16.616 360.938 15.992 361.706 15.352C362.506 14.712 363.45 14.168 364.538 13.72C365.658 13.272 366.922 13.048 368.33 13.048C371.658 13.048 374.17 14.12 375.866 16.264C377.562 18.408 378.41 21.192 378.41 24.616C378.41 27.496 377.914 29.896 376.922 31.816C375.93 33.704 374.538 35.128 372.746 36.088C370.986 37.016 368.954 37.48 366.65 37.48C363.098 37.48 360.266 36.12 358.154 33.4C356.042 30.68 354.986 26.728 354.986 21.544ZM366.986 33.976C369.066 33.976 370.746 33.304 372.026 31.96C373.306 30.616 373.946 28.312 373.946 25.048C373.946 22.424 373.45 20.36 372.458 18.856C371.498 17.32 369.898 16.552 367.658 16.552C366.218 16.552 364.922 16.872 363.77 17.512C362.65 18.12 361.69 18.824 360.89 19.624C360.122 20.424 359.594 21.096 359.306 21.64C359.306 23.208 359.418 24.728 359.642 26.2C359.866 27.672 360.25 29 360.794 30.184C361.37 31.336 362.154 32.264 363.146 32.968C364.17 33.64 365.45 33.976 366.986 33.976ZM395 10.792C397.176 10.792 399.064 11.272 400.664 12.232C402.264 13.192 403.48 14.552 404.312 16.312C405.176 18.04 405.608 20.072 405.608 22.408V24.952H387.992C388.056 27.864 388.792 30.088 390.2 31.624C391.64 33.128 393.64 33.88 396.2 33.88C397.832 33.88 399.272 33.736 400.52 33.448C401.8 33.128 403.112 32.68 404.456 32.104V35.8C403.144 36.376 401.848 36.792 400.568 37.048C399.288 37.336 397.768 37.48 396.008 37.48C393.544 37.48 391.384 36.984 389.528 35.992C387.672 35 386.216 33.528 385.16 31.576C384.136 29.624 383.624 27.208 383.624 24.328C383.624 21.512 384.088 19.096 385.016 17.08C385.976 15.064 387.304 13.512 389 12.424C390.728 11.336 392.728 10.792 395 10.792ZM394.952 14.248C392.936 14.248 391.336 14.904 390.152 16.216C389 17.496 388.312 19.288 388.088 21.592H401.192C401.16 19.416 400.648 17.656 399.656 16.312C398.664 14.936 397.096 14.248 394.952 14.248ZM25.664 97H20.48L4.976 79.624V97H0.656V62.728H4.976V79.336L20.096 62.728H24.992L10.112 79.384L25.664 97ZM41.9919 70.792C45.1599 70.792 47.7039 71.896 49.6239 74.104C51.5759 76.312 52.5519 79.64 52.5519 84.088C52.5519 88.472 51.5759 91.8 49.6239 94.072C47.7039 96.344 45.1439 97.48 41.9439 97.48C39.9599 97.48 38.3119 97.112 36.9999 96.376C35.7199 95.64 34.7119 94.76 33.9759 93.736H33.6879C33.7199 94.28 33.7679 94.968 33.8319 95.8C33.9279 96.632 33.9759 97.352 33.9759 97.96V108.52H29.7519V71.272H33.2079L33.7839 74.776H33.9759C34.7439 73.656 35.7519 72.712 36.9999 71.944C38.2479 71.176 39.9119 70.792 41.9919 70.792ZM41.2239 74.344C38.5999 74.344 36.7439 75.08 35.6559 76.552C34.5679 78.024 34.0079 80.264 33.9759 83.272V84.088C33.9759 87.256 34.4879 89.704 35.5119 91.432C36.5679 93.128 38.5039 93.976 41.3199 93.976C42.8559 93.976 44.1359 93.56 45.1599 92.728C46.1839 91.864 46.9359 90.68 47.4159 89.176C47.9279 87.672 48.1839 85.96 48.1839 84.04C48.1839 81.096 47.6079 78.744 46.4559 76.984C45.3359 75.224 43.5919 74.344 41.2239 74.344ZM69.2191 70.792C71.3951 70.792 73.2831 71.272 74.8831 72.232C76.4831 73.192 77.6991 74.552 78.5311 76.312C79.3951 78.04 79.8271 80.072 79.8271 82.408V84.952H62.2111C62.2751 87.864 63.0111 90.088 64.4191 91.624C65.8591 93.128 67.8591 93.88 70.4191 93.88C72.0511 93.88 73.4911 93.736 74.7391 93.448C76.0191 93.128 77.3311 92.68 78.6751 92.104V95.8C77.3631 96.376 76.0671 96.792 74.7871 97.048C73.5071 97.336 71.9871 97.48 70.2271 97.48C67.7631 97.48 65.6031 96.984 63.7471 95.992C61.8911 95 60.4351 93.528 59.3791 91.576C58.3551 89.624 57.8431 87.208 57.8431 84.328C57.8431 81.512 58.3071 79.096 59.2351 77.08C60.1951 75.064 61.5231 73.512 63.2191 72.424C64.9471 71.336 66.9471 70.792 69.2191 70.792ZM69.1711 74.248C67.1551 74.248 65.5551 74.904 64.3711 76.216C63.2191 77.496 62.5311 79.288 62.3071 81.592H75.4111C75.3791 79.416 74.8671 77.656 73.8751 76.312C72.8831 74.936 71.3151 74.248 69.1711 74.248ZM113.977 71.272V97H110.185V80.584C110.185 79.912 110.201 79.224 110.233 78.52C110.297 77.784 110.361 77.048 110.425 76.312H110.281L101.881 97H98.3289L90.1689 76.312H90.0249C90.1209 77.752 90.1689 79.224 90.1689 80.728V97H86.3769V71.272H91.9929L100.105 91.96L108.361 71.272H113.977ZM132.125 70.792C134.301 70.792 136.189 71.272 137.789 72.232C139.389 73.192 140.605 74.552 141.437 76.312C142.301 78.04 142.733 80.072 142.733 82.408V84.952H125.117C125.181 87.864 125.917 90.088 127.325 91.624C128.765 93.128 130.765 93.88 133.325 93.88C134.957 93.88 136.397 93.736 137.645 93.448C138.925 93.128 140.237 92.68 141.581 92.104V95.8C140.269 96.376 138.973 96.792 137.693 97.048C136.413 97.336 134.893 97.48 133.133 97.48C130.669 97.48 128.509 96.984 126.653 95.992C124.797 95 123.341 93.528 122.285 91.576C121.261 89.624 120.749 87.208 120.749 84.328C120.749 81.512 121.213 79.096 122.141 77.08C123.101 75.064 124.429 73.512 126.125 72.424C127.853 71.336 129.853 70.792 132.125 70.792ZM132.077 74.248C130.061 74.248 128.461 74.904 127.277 76.216C126.125 77.496 125.437 79.288 125.213 81.592H138.317C138.285 79.416 137.773 77.656 136.781 76.312C135.789 74.936 134.221 74.248 132.077 74.248ZM153.507 71.272V81.976H167.475V71.272H171.699V97H167.475V85.528H153.507V97H149.283V71.272H153.507ZM189.782 70.792C191.958 70.792 193.846 71.272 195.446 72.232C197.046 73.192 198.262 74.552 199.094 76.312C199.958 78.04 200.39 80.072 200.39 82.408V84.952H182.774C182.838 87.864 183.574 90.088 184.982 91.624C186.422 93.128 188.422 93.88 190.982 93.88C192.614 93.88 194.054 93.736 195.302 93.448C196.582 93.128 197.894 92.68 199.238 92.104V95.8C197.926 96.376 196.63 96.792 195.35 97.048C194.07 97.336 192.55 97.48 190.79 97.48C188.326 97.48 186.166 96.984 184.31 95.992C182.454 95 180.998 93.528 179.942 91.576C178.918 89.624 178.406 87.208 178.406 84.328C178.406 81.512 178.87 79.096 179.798 77.08C180.758 75.064 182.086 73.512 183.782 72.424C185.51 71.336 187.51 70.792 189.782 70.792ZM189.734 74.248C187.718 74.248 186.118 74.904 184.934 76.216C183.782 77.496 183.094 79.288 182.87 81.592H195.974C195.942 79.416 195.43 77.656 194.438 76.312C193.446 74.936 191.878 74.248 189.734 74.248ZM210.635 71.272V80.632C210.635 83.576 212.283 85.048 215.579 85.048C217.179 85.048 218.635 84.808 219.947 84.328C221.259 83.816 222.603 83.144 223.979 82.312V71.272H228.203V97H223.979V85.528C222.539 86.456 221.115 87.192 219.707 87.736C218.331 88.248 216.667 88.504 214.715 88.504C212.059 88.504 210.011 87.816 208.571 86.44C207.131 85.064 206.411 83.224 206.411 80.92V71.272H210.635ZM240.073 71.272V80.632C240.073 83.576 241.721 85.048 245.017 85.048C246.617 85.048 248.073 84.808 249.385 84.328C250.697 83.816 252.041 83.144 253.417 82.312V71.272H257.641V97H253.417V85.528C251.977 86.456 250.553 87.192 249.145 87.736C247.769 88.248 246.105 88.504 244.153 88.504C241.497 88.504 239.449 87.816 238.009 86.44C236.569 85.064 235.849 83.224 235.849 80.92V71.272H240.073ZM269.798 71.272V86.968C269.798 87.384 269.782 87.976 269.75 88.744C269.718 89.48 269.67 90.248 269.606 91.048C269.574 91.816 269.542 92.408 269.51 92.824L283.286 71.272H288.47V97H284.534V81.832C284.534 81.32 284.534 80.648 284.534 79.816C284.566 78.984 284.598 78.168 284.63 77.368C284.662 76.536 284.694 75.912 284.726 75.496L271.046 97H265.814V71.272H269.798ZM300.882 71.272V81.976H314.85V71.272H319.074V97H314.85V85.528H300.882V97H296.658V71.272H300.882ZM323.189 71.272H327.701L333.269 85.912C333.749 87.224 334.181 88.456 334.565 89.608C334.949 90.76 335.237 91.864 335.429 92.92H335.621C335.813 92.12 336.117 91.08 336.533 89.8C336.949 88.488 337.381 87.176 337.829 85.864L343.061 71.272H347.621L336.533 100.552C335.605 102.984 334.437 104.92 333.029 106.36C331.621 107.8 329.669 108.52 327.173 108.52C326.405 108.52 325.733 108.472 325.157 108.376C324.581 108.312 324.085 108.232 323.669 108.136V104.776C324.021 104.84 324.437 104.904 324.917 104.968C325.429 105.032 325.957 105.064 326.501 105.064C327.973 105.064 329.157 104.648 330.053 103.816C330.949 102.984 331.669 101.88 332.213 100.504L333.557 97.096L323.189 71.272Z" fill="url(#paint0_linear)" style="mix-blend-mode:color-dodge"/>
<defs>
<linearGradient id="paint0_linear" x1="296.01" y1="12.6191" x2="235.706" y2="121.684" gradientUnits="userSpaceOnUse">
<stop offset="0.260417" stop-color="white" stop-opacity="0.836608"/>
<stop offset="0.541667" stop-color="#EEE3E3" stop-opacity="0.637488"/>
<stop offset="0.666667" stop-color="white" stop-opacity="0.36"/>
<stop offset="1" stop-color="white"/>
</linearGradient>
</defs>
</svg>
