<svg width="194" height="36" viewBox="0 0 194 36" fill="none" xmlns="http://www.w3.org/2000/svg">
<path d="M1.024 35.192H0.112C0.24 33.752 1.088 29.528 2.656 22.52C4.224 15.48 5.2 10.216 5.584 6.728C5.584 6.216 5.408 5.608 5.056 4.904C4.736 4.168 4.4 3.576 4.048 3.128L3.568 2.456L3.712 1.736C5.504 1.192 8.592 0.919998 12.976 0.919998C13.392 1.688 13.6 2.792 13.6 4.232C13.6 5.64 12.8 9.64 11.2 16.232H11.44C14.288 16.232 16.32 15.16 17.536 13.016C18.784 10.84 19.712 7.192 20.32 2.072C22.592 1.304 24.976 0.919998 27.472 0.919998C27.536 1.144 27.552 1.688 27.52 2.552C27.52 3.416 27.36 4.536 27.04 5.912C26.72 7.256 26.24 8.68 25.6 10.184C24.992 11.688 24.08 13.112 22.864 14.456C21.68 15.768 20.304 16.824 18.736 17.624C20.592 23.96 22.192 28.088 23.536 30.008C24.112 30.808 24.56 31.208 24.88 31.208C25.456 31.208 26.352 30.92 27.568 30.344L28.144 30.056L29.248 31.832C28.064 32.92 26.688 33.816 25.12 34.52C23.584 35.224 22.128 35.576 20.752 35.576C19.376 35.576 18.288 35.032 17.488 33.944C16.72 32.856 16.064 31.512 15.52 29.912C15.008 28.28 14.464 26.36 13.888 24.152C13.312 21.944 12.928 20.28 12.736 19.16C12.448 19.192 11.696 19.208 10.48 19.208C8.592 27.208 7.648 32.216 7.648 34.232C6.4 34.872 4.192 35.192 1.024 35.192ZM30.8688 35.144H30.5328C30.4688 34.888 30.4368 34.312 30.4368 33.416C30.4368 32.488 30.8688 30.024 31.7328 26.024C32.5968 22.024 33.0288 19.736 33.0288 19.16C33.0288 18.168 32.5808 17.08 31.6848 15.896L31.2528 15.32L31.3008 14.696C33.0288 14.216 35.7968 13.976 39.6048 13.976C39.9888 14.808 40.1808 15.976 40.1808 17.48C40.5328 16.904 41.2688 16.136 42.3888 15.176C43.5088 14.216 44.6608 13.736 45.8448 13.736C47.5728 13.736 48.4368 15.24 48.4368 18.248C48.2768 18.44 48.0528 18.696 47.7648 19.016C47.5088 19.304 46.9648 19.72 46.1328 20.264C45.3328 20.808 44.5488 21.144 43.7808 21.272C43.7488 21.272 43.4768 20.84 42.9648 19.976C42.4528 19.112 42.0688 18.68 41.8128 18.68C41.0128 18.968 40.3088 19.448 39.7008 20.12C38.2288 26.744 37.4928 31.032 37.4928 32.984C37.4928 33.688 37.5088 34.184 37.5408 34.472C36.4208 34.92 34.1968 35.144 30.8688 35.144ZM47.2011 26.696C47.2011 22.696 48.4011 19.544 50.8011 17.24C53.2331 14.904 55.9851 13.736 59.0571 13.736C60.9451 13.736 62.4971 14.2 63.7131 15.128C64.9291 16.056 65.5371 17.304 65.5371 18.872C65.5371 20.408 65.1371 21.704 64.3371 22.76C63.5691 23.816 62.6251 24.632 61.5051 25.208C59.2331 26.328 57.1531 27.032 55.2651 27.32L54.1131 27.464C54.3371 30.472 55.5691 31.976 57.8091 31.976C58.5771 31.976 59.3931 31.784 60.2571 31.4C61.1211 31.016 61.7931 30.632 62.2731 30.248L62.9931 29.672L64.1451 31.208C63.8891 31.56 63.3771 32.024 62.6091 32.6C61.8411 33.176 61.1211 33.656 60.4491 34.04C58.5931 35.064 56.5611 35.576 54.3531 35.576C52.1451 35.576 50.4011 34.792 49.1211 33.224C47.8411 31.656 47.2011 29.48 47.2011 26.696ZM54.0651 25.112C55.6971 24.824 56.9931 24.136 57.9531 23.048C58.9131 21.96 59.3931 20.552 59.3931 18.824C59.3931 17.096 58.8811 16.232 57.8571 16.232C56.6411 16.232 55.6971 17.272 55.0251 19.352C54.3851 21.4 54.0651 23.32 54.0651 25.112ZM67.861 35.144H66.949C66.949 33.64 67.397 30.76 68.293 26.504C69.221 22.248 69.685 19.832 69.685 19.256C69.685 18.2 69.237 17.08 68.341 15.896L67.909 15.32L67.957 14.696C69.685 14.216 72.453 13.976 76.261 13.976C76.709 14.584 76.933 15.576 76.933 16.952C79.813 14.808 82.101 13.736 83.797 13.736C85.941 13.736 87.205 14.84 87.589 17.048C88.453 16.344 89.573 15.624 90.949 14.888C92.357 14.12 93.605 13.736 94.693 13.736C95.813 13.736 96.741 14.104 97.477 14.84C98.213 15.544 98.581 16.536 98.581 17.816C98.581 19.096 98.229 21.208 97.525 24.152C96.821 27.096 96.469 29.08 96.469 30.104C96.469 31.096 96.613 31.592 96.901 31.592C97.093 31.592 97.749 31.288 98.869 30.68L99.397 30.392L100.261 32.072C99.429 32.904 98.293 33.704 96.853 34.472C95.445 35.208 94.197 35.576 93.109 35.576C90.709 35.576 89.509 34.216 89.509 31.496C89.509 30.504 89.845 28.52 90.517 25.544C91.221 22.536 91.573 20.584 91.573 19.688C91.573 18.76 91.301 18.296 90.757 18.296C89.829 18.296 88.773 18.648 87.589 19.352C87.525 19.992 87.077 22.168 86.245 25.88C85.445 29.592 85.045 32.472 85.045 34.52C84.117 34.936 81.941 35.144 78.517 35.144C78.453 34.792 78.421 33.944 78.421 32.6C78.421 31.256 78.789 28.968 79.525 25.736C80.293 22.504 80.677 20.456 80.677 19.592C80.677 18.728 80.373 18.296 79.765 18.296C78.805 18.296 77.749 18.68 76.597 19.448C76.533 19.736 76.213 21.144 75.637 23.672C74.485 28.728 73.909 32.328 73.909 34.472C72.789 34.92 70.773 35.144 67.861 35.144ZM101.623 26.696C101.623 22.696 102.823 19.544 105.223 17.24C107.655 14.904 110.407 13.736 113.479 13.736C115.367 13.736 116.919 14.2 118.135 15.128C119.351 16.056 119.959 17.304 119.959 18.872C119.959 20.408 119.559 21.704 118.759 22.76C117.991 23.816 117.047 24.632 115.927 25.208C113.655 26.328 111.575 27.032 109.687 27.32L108.535 27.464C108.759 30.472 109.991 31.976 112.231 31.976C112.999 31.976 113.815 31.784 114.679 31.4C115.543 31.016 116.215 30.632 116.695 30.248L117.415 29.672L118.567 31.208C118.311 31.56 117.799 32.024 117.031 32.6C116.263 33.176 115.543 33.656 114.871 34.04C113.015 35.064 110.983 35.576 108.775 35.576C106.567 35.576 104.823 34.792 103.543 33.224C102.263 31.656 101.623 29.48 101.623 26.696ZM108.487 25.112C110.119 24.824 111.415 24.136 112.375 23.048C113.335 21.96 113.815 20.552 113.815 18.824C113.815 17.096 113.303 16.232 112.279 16.232C111.063 16.232 110.119 17.272 109.447 19.352C108.807 21.4 108.487 23.32 108.487 25.112ZM122.283 35.144H121.371C121.371 33.64 121.819 30.76 122.715 26.504C123.643 22.248 124.107 19.832 124.107 19.256C124.107 18.2 123.659 17.08 122.763 15.896L122.331 15.32L122.379 14.696C124.107 14.216 126.875 13.976 130.683 13.976C131.099 14.52 131.323 15.512 131.355 16.952C134.139 14.808 136.491 13.736 138.411 13.736C139.563 13.736 140.475 14.136 141.147 14.936C141.851 15.736 142.203 16.744 142.203 17.96C142.203 19.144 141.835 21.208 141.099 24.152C140.363 27.096 139.995 29.08 139.995 30.104C139.995 31.096 140.123 31.592 140.379 31.592C140.571 31.592 141.243 31.288 142.395 30.68L142.971 30.392L143.835 32.072C143.547 32.328 143.163 32.648 142.683 33.032C142.203 33.416 141.307 33.944 139.995 34.616C138.715 35.256 137.563 35.576 136.539 35.576C134.203 35.576 133.035 34.248 133.035 31.592C133.035 30.472 133.387 28.408 134.091 25.4C134.827 22.392 135.195 20.456 135.195 19.592C135.195 18.728 134.923 18.296 134.379 18.296C133.451 18.296 132.315 18.696 130.971 19.496C130.875 20.04 130.555 21.48 130.011 23.816C128.891 28.84 128.331 32.392 128.331 34.472C127.211 34.92 125.195 35.144 122.283 35.144ZM145.17 26.696C145.17 22.696 146.37 19.544 148.77 17.24C151.202 14.904 153.954 13.736 157.026 13.736C158.914 13.736 160.466 14.2 161.682 15.128C162.898 16.056 163.506 17.304 163.506 18.872C163.506 20.408 163.106 21.704 162.306 22.76C161.538 23.816 160.594 24.632 159.474 25.208C157.202 26.328 155.122 27.032 153.234 27.32L152.082 27.464C152.306 30.472 153.538 31.976 155.778 31.976C156.546 31.976 157.362 31.784 158.226 31.4C159.09 31.016 159.762 30.632 160.242 30.248L160.962 29.672L162.114 31.208C161.858 31.56 161.346 32.024 160.578 32.6C159.81 33.176 159.09 33.656 158.418 34.04C156.562 35.064 154.53 35.576 152.322 35.576C150.114 35.576 148.37 34.792 147.09 33.224C145.81 31.656 145.17 29.48 145.17 26.696ZM152.034 25.112C153.666 24.824 154.962 24.136 155.922 23.048C156.882 21.96 157.362 20.552 157.362 18.824C157.362 17.096 156.85 16.232 155.826 16.232C154.61 16.232 153.666 17.272 152.994 19.352C152.354 21.4 152.034 23.32 152.034 25.112ZM179.558 14.312C179.494 15.112 179.222 16.04 178.742 17.096C177.526 16.968 176.374 16.904 175.286 16.904H174.422C172.95 24.04 172.214 28.488 172.214 30.248C172.214 31.176 172.406 31.64 172.79 31.64C173.206 31.64 174.278 31.24 176.006 30.44L176.87 32.024C174.022 34.392 171.382 35.576 168.95 35.576C167.83 35.576 166.902 35.224 166.166 34.52C165.462 33.816 165.11 32.888 165.11 31.736C165.11 30.552 165.238 29.224 165.494 27.752C165.782 26.28 166.166 24.488 166.646 22.376C167.126 20.232 167.478 18.504 167.702 17.192C166.518 17.288 165.638 17.384 165.062 17.48C164.998 17.096 164.966 16.584 164.966 15.944C164.966 15.272 165.014 14.728 165.11 14.312H168.134C168.39 12.584 168.518 10.952 168.518 9.416L168.47 7.928V7.784C170.966 6.92 173.318 6.488 175.526 6.488C175.654 7.128 175.718 7.928 175.718 8.888C175.718 9.848 175.446 11.656 174.902 14.312H179.558ZM193.522 28.712C193.522 30.728 192.626 32.376 190.834 33.656C189.074 34.936 187.058 35.576 184.786 35.576C182.514 35.576 180.706 35.096 179.362 34.136C178.05 33.176 177.394 32.328 177.394 31.592C177.394 31.144 177.954 30.424 179.074 29.432C180.194 28.408 181.138 27.784 181.906 27.56C183.506 28.744 184.818 30.616 185.842 33.176C187.026 33.08 187.618 32.52 187.618 31.496C187.618 30.024 186.322 27.944 183.73 25.256C181.138 22.536 179.842 20.376 179.842 18.776C179.842 17.176 180.562 15.944 182.002 15.08C183.442 14.184 185.17 13.736 187.186 13.736C189.234 13.736 190.77 14.104 191.794 14.84C192.818 15.544 193.33 16.52 193.33 17.768C193.33 18.984 192.354 20.68 190.402 22.856C190.626 23.08 190.914 23.384 191.266 23.768C191.618 24.12 192.082 24.808 192.658 25.832C193.234 26.856 193.522 27.816 193.522 28.712ZM188.914 21.176C190.258 20.024 190.93 18.888 190.93 17.768C190.93 16.648 190.162 16.088 188.626 16.088C187.89 16.088 187.282 16.248 186.802 16.568C186.322 16.856 186.082 17.192 186.082 17.576C186.082 18.28 186.786 19.272 188.194 20.552L188.914 21.176Z" fill="url(#paint0_linear)"/>
<defs>
<linearGradient id="paint0_linear" x1="190" y1="-13" x2="190" y2="106" gradientUnits="userSpaceOnUse">
<stop stop-color="white"/>
<stop offset="0.973958" stop-color="white" stop-opacity="0.386406"/>
<stop offset="1" stop-opacity="0.37"/>
</linearGradient>
</defs>
</svg>
