<?xml version="1.0" standalone="no"?>
<!DOCTYPE svg PUBLIC "-//W3C//DTD SVG 20010904//EN"
 "http://www.w3.org/TR/2001/REC-SVG-20010904/DTD/svg10.dtd">
<svg version="1.0" xmlns="http://www.w3.org/2000/svg"
 width="259.000000pt" height="259.000000pt" viewBox="0 0 259.000000 259.000000"
 preserveAspectRatio="xMidYMid meet">
<metadata>
Created by potrace 1.11, written by Peter Selinger 2001-2013
</metadata>
<g transform="translate(0.000000,259.000000) scale(0.100000,-0.100000)"
fill="#000000" stroke="none">
<path d="M86 2519 c-16 -5 -42 -22 -58 -39 -25 -27 -28 -39 -28 -94 0 -63 0
-64 31 -70 57 -11 66 -7 93 39 15 25 33 45 41 45 17 0 20 26 4 35 -6 4 -8 13
-5 21 8 20 -13 61 -33 66 -9 3 -29 1 -45 -3z"/>
<path d="M2576 2511 c-3 -5 -36 -21 -73 -36 -70 -28 -77 -31 -128 -65 -16 -11
-59 -29 -94 -41 -78 -25 -161 -77 -161 -101 0 -15 9 -18 53 -18 30 1 60 7 71
15 11 8 35 15 53 15 19 0 48 7 65 16 22 12 33 13 38 4 13 -21 64 -41 88 -35
19 5 23 3 19 -9 -4 -10 -1 -13 7 -10 7 3 19 -2 26 -11 7 -8 21 -15 31 -15 18
0 19 10 19 150 0 83 -2 150 -4 150 -3 0 -7 -4 -10 -9z"/>
<path d="M2560 1990 c-14 -11 -32 -20 -41 -20 -20 0 -50 -43 -41 -56 8 -11 72
-34 93 -34 12 0 12 2 -1 10 -13 9 -13 12 3 24 13 10 17 25 15 55 l-3 40 -25
-19z"/>
<path d="M1140 1869 c-19 -5 -50 -12 -68 -14 -21 -4 -46 -19 -67 -41 -32 -34
-36 -35 -77 -28 -46 8 -89 8 -125 -1 -22 -5 -23 -10 -23 -95 l0 -90 34 14 c19
8 45 12 58 10 22 -5 22 -5 -2 10 -17 10 -29 11 -37 4 -7 -5 -18 -8 -25 -5 -8
4 -5 8 9 12 13 4 20 11 17 16 -3 5 -2 10 3 10 4 1 21 3 37 5 33 3 47 13 23 15
-32 3 -37 4 -37 12 0 6 5 9 13 6 22 -7 37 -5 37 4 0 7 14 12 33 12 17 -1 35 4
39 9 3 5 17 10 30 11 12 1 30 4 38 6 8 2 14 -1 13 -8 -1 -6 4 -14 12 -17 8 -3
15 -1 15 5 0 6 4 8 9 5 5 -3 16 5 25 19 16 24 45 37 30 14 -4 -8 1 -9 17 -5
18 4 16 2 -6 -9 l-30 -14 28 -1 c16 0 26 -4 22 -10 -3 -5 -1 -10 5 -10 7 0 10
7 6 15 -3 9 3 19 15 26 12 6 18 17 15 25 -3 8 -1 14 4 14 6 0 10 -8 10 -17 0
-15 2 -16 10 -3 5 8 10 11 10 5 0 -5 -12 -20 -27 -32 -16 -13 -21 -20 -12 -17
12 4 16 -1 14 -18 -1 -13 0 -15 2 -5 5 20 8 20 34 7 10 -6 19 -7 19 -2 0 4
-10 13 -22 18 -13 6 -18 9 -11 7 7 -1 15 2 18 7 3 5 18 5 33 1 15 -4 34 -6 42
-4 13 4 13 3 0 -6 -13 -10 -13 -11 0 -12 8 -1 22 -1 30 0 9 1 6 -5 -9 -17 -26
-21 -22 -38 13 -52 17 -7 17 -9 4 -9 -10 -1 -18 -6 -18 -12 0 -6 6 -9 14 -6 9
4 17 -1 19 -11 4 -16 5 -15 6 1 0 9 6 17 12 17 5 0 7 -4 4 -10 -9 -15 4 -12
21 4 21 21 17 29 -11 22 -28 -7 -33 5 -10 24 13 10 19 8 35 -13 18 -23 24 -25
45 -15 14 6 25 15 25 20 0 4 7 8 15 8 10 0 15 -10 15 -30 0 -19 5 -29 13 -28
6 2 11 -5 9 -14 -2 -10 2 -18 9 -18 8 0 8 -4 -1 -15 -13 -15 -65 -22 -56 -7 2
4 -6 8 -19 8 -13 0 -21 -5 -18 -12 2 -6 -6 -14 -19 -16 -13 -3 -32 -9 -42 -13
-14 -6 -17 -5 -12 3 4 7 2 12 -4 12 -20 0 -4 -25 18 -28 14 -2 19 -8 15 -19
-4 -11 -2 -14 8 -11 8 3 13 10 12 16 -1 5 4 13 13 16 8 3 12 2 9 -4 -8 -13 6
-13 25 0 13 9 13 11 0 20 -11 7 -2 10 33 10 44 0 47 -2 37 -19 -7 -14 -7 -20
2 -23 13 -5 19 -68 6 -68 -4 0 -8 -5 -8 -11 0 -5 5 -7 12 -3 8 5 9 2 5 -10 -4
-10 -7 -20 -7 -22 0 -2 -9 -4 -20 -4 -11 0 -20 -5 -20 -11 0 -6 -7 -9 -15 -5
-8 3 -25 1 -37 -3 -23 -9 -23 -9 5 -20 41 -16 70 -14 63 4 -3 8 -2 15 3 15 5
0 11 -9 14 -20 4 -15 0 -20 -16 -21 -16 -1 -14 -3 8 -8 l30 -6 0 -155 c0 -85
-3 -165 -7 -177 -4 -12 -3 -25 2 -28 4 -3 6 -20 3 -38 -3 -17 -6 -42 -7 -54 0
-13 -4 -23 -9 -23 -5 0 -4 -6 2 -13 6 -8 8 -17 4 -20 -3 -4 -1 -7 6 -7 25 0
-21 -34 -48 -35 -40 -2 -102 -15 -143 -31 -21 -7 -53 -16 -72 -18 -34 -4 -34
-4 -33 35 1 21 5 39 10 39 4 0 7 4 7 9 0 11 -24 9 -27 -2 -1 -5 -11 -16 -22
-26 -16 -14 -18 -20 -8 -31 8 -8 8 -11 1 -7 -7 4 -15 0 -18 -9 -6 -15 -8 -15
-24 -1 -16 15 -21 17 -39 17 -5 0 3 10 17 21 24 20 24 21 3 16 -15 -3 -23 0
-23 9 0 8 5 14 12 14 6 0 3 9 -7 20 -14 16 -16 23 -7 32 7 7 12 18 12 26 0 12
-3 12 -15 2 -18 -15 -21 1 -4 31 6 11 11 53 11 94 1 63 4 77 23 95 24 23 24
76 -1 66 -8 -3 -11 0 -7 10 6 17 5 17 40 3 15 -6 44 -13 63 -14 19 -2 27 -1
18 2 -21 5 -22 12 -4 36 8 10 28 19 45 19 17 1 28 5 24 11 -3 5 6 7 25 3 21
-5 34 -2 46 9 9 9 21 13 28 9 7 -4 4 2 -6 14 -19 22 -32 30 -22 13 8 -12 -18
-21 -74 -28 -25 -3 -48 -10 -51 -15 -4 -6 -17 -7 -29 -3 -19 6 -22 4 -17 -9 4
-9 2 -16 -2 -16 -5 0 -17 -3 -25 -6 -14 -5 -15 -2 -7 18 8 23 7 24 -20 20 -16
-2 -29 -10 -29 -18 0 -8 -4 -14 -10 -14 -5 0 -7 -6 -4 -14 3 -8 1 -17 -5 -21
-10 -5 -15 6 -13 27 1 3 -5 8 -12 11 -11 4 -11 -1 0 -31 12 -35 11 -37 -9 -41
-12 -1 -34 -12 -49 -23 -15 -10 -33 -16 -39 -12 -8 4 -9 3 -5 -4 4 -6 -8 -33
-27 -59 -37 -53 -57 -111 -57 -167 0 -20 -3 -35 -7 -35 -21 3 -26 -2 -13 -12
10 -7 11 -12 3 -15 -8 -4 -9 -14 -3 -35 7 -24 6 -29 -8 -29 -17 1 -77 13 -122
25 -14 4 -33 8 -44 9 -22 3 -41 32 -26 41 7 4 7 12 0 25 -6 11 -6 20 -1 22 6
2 12 15 15 31 3 19 1 27 -10 27 -15 0 -15 21 1 32 6 5 6 8 -2 8 -10 0 -10 8 1
75 1 6 5 16 9 23 5 7 3 12 -5 13 -136 5 -210 3 -245 -7 l-43 -13 0 29 c0 19
-5 30 -14 30 -8 0 -16 5 -18 11 -2 6 -22 11 -45 12 -22 1 -39 5 -37 8 2 4 -7
14 -20 22 -38 25 -135 -6 -122 -39 2 -7 -4 -20 -15 -30 -11 -10 -18 -26 -16
-36 3 -10 1 -18 -4 -18 -5 0 -9 -9 -9 -20 0 -11 -4 -20 -9 -20 -6 0 -13 -21
-17 -47 -8 -50 -10 -58 -14 -70 -1 -5 -3 -21 -4 -38 -6 -69 -20 -81 -111 -97
-20 -3 -20 -12 -23 -381 l-2 -377 1295 0 1295 0 0 230 0 230 -25 0 c-16 0 -25
6 -25 16 0 8 5 12 11 9 23 -15 37 30 38 120 2 90 1 91 -30 120 -20 18 -30 23
-26 13 5 -14 2 -15 -24 -6 -16 5 -41 7 -55 4 -18 -5 -32 -2 -45 10 -14 13 -27
15 -56 9 -21 -4 -56 -7 -78 -7 -31 0 -34 -1 -15 -6 14 -4 26 -13 28 -21 3 -12
0 -12 -12 -2 -9 7 -24 10 -37 6 -18 -6 -20 -4 -15 13 5 15 1 21 -20 26 -15 4
-32 2 -40 -5 -11 -9 -15 -8 -20 4 -3 9 -14 19 -25 22 -10 4 -19 12 -19 20 0 7
-16 41 -35 74 -19 34 -37 78 -40 99 -4 20 -9 44 -12 52 -4 8 -7 17 -8 20 -1 3
-6 20 -10 38 -4 18 -12 35 -16 38 -5 3 -9 15 -9 27 0 13 -7 33 -16 45 -14 20
-14 24 0 38 9 8 16 21 17 27 4 63 6 84 13 100 6 11 4 17 -5 18 -21 1 -140 0
-174 -2 -80 -4 -84 -2 -107 51 -12 28 -27 50 -32 50 -6 0 -19 17 -29 38 -14
28 -19 67 -21 158 -1 66 -6 126 -10 133 -8 13 -81 7 -101 -9 -11 -9 -71 -6
-97 5 -9 3 -26 2 -37 -5 -16 -8 -26 -7 -46 6 -14 9 -25 20 -25 25 0 5 -9 9
-19 9 -11 0 -23 5 -26 10 -3 6 -17 10 -31 10 -13 0 -24 5 -24 10 0 12 -12 11
-60 -1z m65 -68 c3 -5 2 -12 -3 -15 -5 -3 -9 1 -9 9 0 17 3 19 12 6z m-310
-71 c3 -5 1 -10 -4 -10 -6 0 -11 5 -11 10 0 6 2 10 4 10 3 0 8 -4 11 -10z
m517 -30 c-16 -29 -40 -43 -28 -17 3 6 9 20 12 30 4 9 12 17 20 17 10 0 9 -7
-4 -30z m428 -470 c-12 -7 -8 -10 15 -11 17 0 24 -3 17 -6 -19 -7 -64 6 -57
17 3 6 14 10 23 10 15 0 15 -2 2 -10z m67 -56 c-7 -7 -37 7 -37 17 0 6 9 5 21
-1 11 -7 19 -14 16 -16z m-51 7 c-3 -5 -14 -8 -24 -6 -9 1 -11 0 -4 -2 6 -3
12 -11 12 -19 0 -16 14 -18 40 -4 12 7 21 6 28 -3 8 -9 4 -12 -15 -13 -28 -2
-44 -15 -25 -21 17 -6 15 -23 -3 -23 -9 0 -15 9 -15 21 0 15 -5 19 -15 15 -8
-3 -15 -1 -15 4 0 6 -8 10 -17 11 -12 1 -9 4 7 8 l25 7 -24 8 c-18 6 -21 10
-10 17 18 12 62 12 55 0z m14 -15 c0 -3 -4 -8 -10 -11 -5 -3 -10 -1 -10 4 0 6
5 11 10 11 6 0 10 -2 10 -4z m-650 -42 c0 -8 -6 -11 -15 -8 -8 4 -15 12 -15
20 0 8 6 11 15 8 8 -4 15 -12 15 -20z m-915 -4 c-3 -5 0 -10 7 -11 9 0 10 -2
1 -5 -7 -3 -9 -13 -6 -22 6 -14 4 -15 -9 -4 -16 13 -13 52 4 52 5 0 6 -4 3
-10z m-63 -52 c-8 -8 -9 -4 -5 13 4 13 8 18 11 10 2 -7 -1 -18 -6 -23z m38 8
c0 -3 -4 -8 -10 -11 -5 -3 -10 -1 -10 4 0 6 5 11 10 11 6 0 10 -2 10 -4z m130
-6 c0 -5 -8 -10 -17 -10 -15 0 -16 2 -3 10 19 12 20 12 20 0z m-138 -39 c-5
-3 -14 -15 -20 -26 -10 -17 -11 -17 -12 -3 0 9 5 20 10 23 6 4 8 11 5 16 -3 5
1 6 10 2 9 -3 13 -9 7 -12z m106 -16 c-16 -13 -28 -29 -28 -35 0 -5 -6 -10
-12 -11 -7 0 -20 -2 -29 -4 -11 -2 -16 4 -15 16 1 11 6 20 11 21 6 0 16 8 22
17 11 14 14 14 23 1 8 -13 12 -12 26 8 9 13 19 20 23 17 3 -4 -6 -17 -21 -30z
m1505 5 c-3 -11 -10 -20 -15 -20 -5 0 -6 5 -2 11 4 8 -1 9 -17 5 -18 -4 -16
-2 6 9 17 8 31 14 32 15 0 0 -1 -9 -4 -20z m-1345 -7 c-2 -9 -10 -18 -18 -20
-13 -4 -13 -3 0 6 13 10 13 12 0 21 -13 8 -12 10 3 10 12 0 17 -6 15 -17z
m-24 -35 c16 -11 38 -10 31 2 -3 6 1 10 9 10 9 0 16 6 16 13 1 6 9 2 19 -10
10 -12 22 -19 26 -15 5 4 4 0 -1 -8 -9 -16 -15 -40 -9 -40 2 0 16 5 32 11 15
5 24 7 20 3 -4 -4 1 -16 10 -26 14 -15 14 -18 2 -13 -9 3 -22 -1 -29 -10 -16
-19 -30 -19 -30 0 0 8 -7 15 -15 15 -8 0 -15 -5 -15 -11 0 -5 5 -7 10 -4 6 3
10 2 10 -4 0 -5 -12 -8 -27 -7 -30 4 -56 -11 -47 -25 3 -5 -4 -9 -16 -9 l-21
0 21 22 21 23 -35 31 c-39 35 -44 49 -21 58 9 3 12 12 9 23 -4 14 -3 14 7 -2
7 -11 17 -23 23 -27z m1436 6 c21 -21 22 -27 10 -34 -8 -5 -11 -10 -6 -10 5 0
3 -7 -5 -16 -11 -14 -10 -15 7 -12 13 2 19 -2 17 -15 0 -12 4 -16 13 -13 8 3
14 -1 14 -9 0 -8 8 -15 17 -15 15 0 14 -2 -3 -16 -16 -13 -16 -15 -1 -10 9 3
17 1 17 -5 0 -6 4 -8 8 -5 5 3 9 -1 9 -9 0 -8 -7 -15 -14 -15 -8 0 -11 5 -8
10 3 6 -1 10 -9 10 -10 0 -13 -6 -9 -17 5 -13 2 -15 -15 -11 -12 4 -22 3 -22
-2 0 -4 -9 -10 -20 -13 -13 -3 -20 0 -20 9 0 8 -7 14 -16 14 -9 0 -12 -5 -8
-12 5 -8 0 -7 -11 2 -17 14 -18 13 -12 -2 4 -12 1 -16 -13 -15 -26 2 -35 29
-15 43 15 11 15 13 -2 24 -15 9 -15 11 -1 6 9 -2 22 2 30 11 11 14 10 15 -10
9 -27 -9 -72 0 -72 14 0 6 8 5 19 -2 16 -10 25 -9 46 2 18 9 22 16 13 21 -14
9 -14 9 32 31 29 14 31 17 13 17 -18 1 -22 6 -19 24 3 12 5 25 5 30 2 14 18 7
41 -19z m-1543 2 c-4 -10 2 -16 21 -18 27 -3 26 -4 -4 -9 -25 -4 -31 -2 -29
10 2 9 4 19 4 24 1 4 4 7 7 7 3 0 4 -6 1 -14z m1438 4 c3 -5 1 -10 -4 -10 -6
0 -11 5 -11 10 0 6 2 10 4 10 3 0 8 -4 11 -10z m50 -10 c3 -5 1 -10 -4 -10 -6
0 -11 5 -11 10 0 6 2 10 4 10 3 0 8 -4 11 -10z m-1643 -12 c3 -7 -2 -19 -9
-27 -8 -7 -12 -19 -9 -27 3 -7 0 -15 -7 -18 -7 -4 -2 -4 11 -2 22 4 30 -8 13
-18 -5 -3 -7 -15 -4 -25 3 -10 1 -21 -4 -24 -5 -3 -9 3 -9 15 1 12 -4 23 -11
25 -8 3 -11 -3 -8 -17 5 -26 -13 -34 -46 -20 -21 9 -21 10 -2 6 15 -3 20 0 16
10 -3 8 -9 14 -14 14 -5 0 -9 5 -9 10 0 6 5 9 12 8 6 -2 14 6 16 17 2 11 9 23
16 27 8 6 7 8 -2 8 -7 0 -10 5 -7 10 3 6 2 10 -4 10 -5 0 -12 -6 -14 -12 -3
-7 -6 -3 -6 8 -1 17 4 20 23 17 13 -3 27 0 30 6 9 15 23 14 28 -1z m1551 -3
c-3 -9 -8 -14 -10 -11 -3 3 -2 9 2 15 9 16 15 13 8 -4z m87 -9 c0 -2 -7 -7
-16 -10 -8 -3 -12 -2 -9 4 6 10 25 14 25 6z m-1585 -25 c-4 -13 0 -23 11 -29
11 -6 13 -11 5 -16 -6 -4 -11 -3 -11 2 0 6 -10 8 -22 6 -13 -2 -17 -2 -10 2
17 8 15 25 -3 18 -11 -5 -13 -2 -9 10 3 9 10 14 14 11 5 -3 11 -1 15 5 10 17
17 11 10 -9z m45 -2 c0 6 7 11 15 11 8 0 15 -6 15 -14 0 -9 7 -13 20 -11 23 4
36 -10 18 -21 -6 -4 -14 -2 -16 5 -3 9 -8 9 -20 -1 -13 -11 -15 -11 -8 2 4 8
0 6 -8 -4 -14 -18 -21 -15 -17 7 0 4 -5 7 -12 7 -8 0 -14 7 -14 15 0 11 4 12
14 4 9 -8 13 -8 13 0z m159 -23 c9 -10 8 -16 -4 -26 -8 -7 -15 -9 -15 -4 0 5
-5 1 -11 -9 -6 -9 -15 -15 -20 -11 -5 3 -15 1 -22 -4 -13 -10 -45 -8 -55 4 -4
4 1 5 10 1 9 -3 19 0 22 8 3 8 12 12 21 9 8 -3 15 -1 15 5 0 6 7 11 15 11 8 0
15 5 15 11 0 5 -5 7 -12 3 -7 -4 -8 -3 -4 4 10 16 31 15 45 -2z m1342 -19
c-10 -9 -11 -8 -5 6 3 10 9 15 12 12 3 -3 0 -11 -7 -18z m-1550 -25 c9 2 13
-5 12 -17 -1 -19 0 -19 14 3 17 24 33 29 33 9 0 -7 -9 -18 -20 -25 -12 -7 -19
-16 -16 -21 3 -4 -1 -8 -9 -8 -8 0 -12 4 -9 9 3 4 -2 8 -11 8 -10 0 -13 5 -9
12 5 8 2 9 -10 5 -14 -5 -17 -3 -12 8 3 8 1 15 -5 15 -6 0 -7 5 -4 10 5 8 11
8 20 0 7 -6 19 -9 26 -8z m109 -59 c0 -2 -9 -3 -21 -3 -11 0 -17 5 -14 10 9
14 -8 13 -23 -2 -9 -9 -12 -9 -12 0 0 22 32 30 51 13 11 -8 19 -17 19 -18z
m215 27 c3 -5 -1 -10 -10 -10 -9 0 -13 5 -10 10 3 6 8 10 10 10 2 0 7 -4 10
-10z m-60 -10 c-3 -5 -12 -10 -20 -10 -8 0 -17 5 -20 10 -4 6 5 10 20 10 15 0
24 -4 20 -10z m170 0 c-3 -5 -12 -10 -18 -10 -7 0 -6 4 3 10 19 12 23 12 15 0z
m1462 -87 c-4 -3 -2 -12 4 -20 9 -10 8 -13 -1 -13 -8 0 -10 -3 -7 -6 4 -4 13
-1 22 6 13 11 14 10 9 -4 -6 -17 3 -17 61 -2 6 2 24 -3 40 -11 l30 -13 -40 1
c-67 2 -69 1 -55 -16 11 -13 11 -18 0 -28 -10 -10 -12 -9 -7 5 8 23 -8 31 -68
35 -35 2 -46 0 -35 -7 13 -9 13 -11 0 -19 -10 -7 -17 -6 -22 2 -6 9 -8 9 -8 0
0 -7 -4 -13 -9 -13 -4 0 -6 11 -3 25 4 24 3 25 -22 15 -37 -14 -43 -13 -21 3
14 11 15 16 5 22 -9 5 -3 12 20 21 41 18 51 18 44 0 -7 -19 12 -29 33 -17 17
10 17 10 1 11 -21 0 -24 16 -5 23 18 8 41 8 34 0z m128 -3 c-3 -5 -11 -10 -16
-10 -6 0 -7 5 -4 10 3 6 11 10 16 10 6 0 7 -4 4 -10z m39 -117 c-19 -19 -40
-17 -24 2 13 15 4 19 -37 18 -29 -1 -11 16 20 19 38 4 62 -18 41 -39z m102 11
c-4 -9 -9 -15 -11 -12 -3 3 -3 13 1 22 4 9 9 15 11 12 3 -3 3 -13 -1 -22z
m114 -14 c0 -5 -9 -10 -19 -10 -11 0 -23 5 -26 10 -4 6 5 10 19 10 14 0 26 -4
26 -10z m-294 -65 c28 -26 21 -34 -11 -11 -10 7 -26 12 -34 11 -9 -1 -10 0 -3
2 6 3 12 9 12 14 0 14 7 11 36 -16z m169 -13 c-3 -3 -11 0 -18 7 -9 10 -8 11
6 5 10 -3 15 -9 12 -12z m59 -7 c-4 -10 0 -15 11 -15 9 0 14 -4 11 -9 -7 -10
-46 -3 -46 8 0 7 21 31 27 31 1 0 0 -7 -3 -15z m-163 -52 c3 1 1 -2 -3 -7 -8
-11 -38 0 -38 14 0 7 6 8 19 1 10 -6 20 -9 22 -8z m186 -39 c-3 -3 -12 -4 -19
-1 -8 3 -5 6 6 6 11 1 17 -2 13 -5z m-67 -14 c13 -8 13 -10 -2 -10 -9 0 -20 5
-23 10 -8 13 5 13 25 0z m84 -15 c3 -8 1 -15 -4 -15 -6 0 -10 7 -10 15 0 8 2
15 4 15 2 0 6 -7 10 -15z"/>
<path d="M566 941 c-17 -19 -17 -19 1 -15 11 3 20 12 20 20 0 18 0 18 -21 -5z"/>
<path d="M620 920 c0 -5 7 -10 15 -10 8 0 15 5 15 10 0 6 -7 10 -15 10 -8 0
-15 -4 -15 -10z"/>
<path d="M545 900 c3 -5 8 -10 11 -10 2 0 4 5 4 10 0 6 -5 10 -11 10 -5 0 -7
-4 -4 -10z"/>
<path d="M2442 1763 c-25 -3 -45 -10 -49 -19 -3 -8 -11 -14 -19 -14 -28 0 -49
-90 -24 -105 5 -3 33 5 62 19 63 29 75 32 111 22 30 -9 35 -21 12 -30 -8 -3
-15 -12 -15 -20 0 -7 7 -16 15 -20 10 -4 15 1 15 14 0 11 9 25 20 32 15 10 20
24 20 57 0 24 -3 42 -6 39 -3 -4 -14 2 -25 13 -19 19 -28 20 -117 12z"/>
<path d="M5 1732 c-7 -8 -6 -212 1 -212 4 0 15 10 26 23 15 16 19 32 15 58 -3
20 1 46 9 60 23 42 18 66 -16 71 -17 3 -32 2 -35 0z"/>
<path d="M1308 1733 c7 -3 16 -2 19 1 4 3 -2 6 -13 5 -11 0 -14 -3 -6 -6z"/>
<path d="M1146 1718 c3 -4 9 -8 15 -8 5 0 9 4 9 8 0 5 -7 9 -15 9 -8 0 -12 -4
-9 -9z"/>
<path d="M1097 1705 c-9 -22 8 -26 21 -4 10 15 10 19 -2 19 -8 0 -16 -7 -19
-15z"/>
<path d="M1306 1705 c-17 -13 -17 -15 -3 -15 21 0 12 -27 -11 -33 -13 -4 -13
-5 3 -6 16 -1 17 -3 5 -11 -8 -5 -11 -13 -6 -17 5 -4 11 -2 13 4 3 8 15 11 31
8 26 -6 26 -5 -3 9 -16 8 -25 15 -18 15 6 1 16 15 22 31 11 34 -1 40 -33 15z"/>
<path d="M1040 1700 c-8 -5 -10 -10 -5 -10 6 0 17 5 25 10 8 5 11 10 5 10 -5
0 -17 -5 -25 -10z"/>
<path d="M1070 1664 c0 -8 5 -12 10 -9 6 4 8 11 5 16 -9 14 -15 11 -15 -7z"/>
<path d="M855 1660 c-2 -3 5 -7 16 -7 10 -1 19 2 19 6 0 9 -29 10 -35 1z"/>
<path d="M1088 1633 c-13 -3 -18 -15 -18 -44 0 -29 -4 -39 -16 -39 -8 0 -12
-5 -9 -10 4 -6 11 -8 16 -5 5 4 9 0 9 -8 0 -20 26 -29 38 -14 6 7 12 25 14 41
5 43 28 46 28 3 0 -27 -5 -36 -22 -41 l-23 -7 23 -11 c19 -9 25 -9 33 3 6 9 9
10 9 2 0 -7 6 -10 13 -7 7 2 19 -6 26 -20 14 -26 38 -25 43 1 2 10 16 17 36
19 22 3 31 0 27 -7 -4 -6 2 -5 14 3 12 7 21 17 21 22 0 21 42 44 74 40 40 -5
65 16 42 35 -11 9 -15 7 -20 -11 -4 -13 -10 -18 -12 -11 -3 7 -12 9 -21 6 -10
-4 -14 -2 -10 4 3 5 0 10 -8 10 -8 0 -15 -6 -15 -14 0 -7 -9 -13 -21 -13 -11
0 -17 5 -14 10 3 6 2 10 -4 10 -5 0 -11 -4 -13 -9 -5 -13 -98 -24 -98 -12 0 6
-9 11 -20 11 -13 0 -18 -5 -14 -15 4 -9 1 -15 -7 -15 -7 0 -3 -7 9 -16 13 -9
31 -13 45 -9 21 6 21 5 3 -9 -10 -8 -15 -20 -11 -28 3 -7 -3 -1 -15 15 -12 15
-30 27 -41 27 -17 0 -18 5 -13 43 4 23 12 45 18 49 7 5 7 8 1 8 -6 0 -16 -5
-23 -12 -9 -9 -11 -6 -7 10 3 18 -1 22 -23 21 -15 -1 -35 -3 -44 -6z m139
-110 c-3 -3 -11 -2 -17 2 -9 6 -9 10 1 16 14 8 27 -7 16 -18z m113 1 c0 -6
-17 -11 -37 -12 -26 -1 -33 1 -24 7 11 7 7 10 -15 14 -16 2 -5 4 23 3 31 -1
53 -6 53 -12z"/>
<path d="M1325 1610 c3 -5 8 -10 11 -10 2 0 4 5 4 10 0 6 -5 10 -11 10 -5 0
-7 -4 -4 -10z"/>
<path d="M787 1576 c-13 -10 -16 -21 -11 -40 3 -14 10 -26 15 -26 12 0 11 17
-1 25 -6 4 -4 12 5 21 8 9 15 20 15 25 0 11 -1 11 -23 -5z"/>
<path d="M1385 1540 c-3 -5 -1 -10 4 -10 6 0 11 5 11 10 0 6 -2 10 -4 10 -3 0
-8 -4 -11 -10z"/>
<path d="M1373 1513 c9 -2 23 -2 30 0 6 3 -1 5 -18 5 -16 0 -22 -2 -12 -5z"/>
<path d="M2203 1493 c-29 -28 -29 -49 0 -57 40 -10 81 3 111 36 l29 32 -23 8
c-38 14 -93 5 -117 -19z"/>
<path d="M790 1491 c13 -9 13 -11 -2 -11 -12 0 -18 -8 -18 -25 0 -15 6 -25 14
-25 7 0 16 -9 19 -20 3 -11 11 -20 19 -19 10 0 10 2 1 6 -7 2 -13 12 -13 20 0
8 6 13 13 10 7 -2 23 3 35 13 22 19 22 19 -28 14 -35 -3 -49 -1 -45 6 3 6 11
7 17 4 6 -4 8 1 6 11 -1 10 -10 20 -18 22 -13 4 -13 3 0 -6z"/>
<path d="M1186 1454 c-4 -10 -1 -14 6 -12 15 5 23 28 10 28 -5 0 -13 -7 -16
-16z"/>
<path d="M1450 1463 c0 -5 15 -9 33 -10 26 -1 28 0 12 7 -26 11 -45 12 -45 3z"/>
<path d="M1135 1440 c-3 -5 -1 -10 4 -10 6 0 11 5 11 10 0 6 -2 10 -4 10 -3 0
-8 -4 -11 -10z"/>
<path d="M1055 1430 c-3 -5 -1 -10 4 -10 6 0 11 5 11 10 0 6 -2 10 -4 10 -3 0
-8 -4 -11 -10z"/>
<path d="M1352 1419 c2 -7 10 -15 17 -17 8 -3 12 1 9 9 -2 7 -10 15 -17 17 -8
3 -12 -1 -9 -9z"/>
<path d="M1088 1403 c7 -3 16 -2 19 1 4 3 -2 6 -13 5 -11 0 -14 -3 -6 -6z"/>
<path d="M1236 1384 c-5 -14 -4 -15 9 -4 17 14 19 20 6 20 -5 0 -12 -7 -15
-16z"/>
<path d="M1315 1380 c-8 -13 5 -13 25 0 13 8 13 10 -2 10 -9 0 -20 -4 -23 -10z"/>
<path d="M2207 1367 c-43 -22 -40 -39 6 -30 49 9 58 15 44 33 -11 13 -16 13
-50 -3z"/>
<path d="M770 1366 c0 -6 11 -12 25 -12 16 -1 24 3 22 10 -5 14 -47 17 -47 2z"/>
<path d="M1083 1364 c-14 -15 -3 -27 14 -16 7 4 9 13 5 19 -5 8 -11 7 -19 -3z"/>
<path d="M1010 1366 c0 -2 9 -6 20 -9 11 -3 18 -1 14 4 -5 9 -34 13 -34 5z"/>
<path d="M1241 1354 c-10 -12 -10 -19 -2 -27 6 -6 11 -8 11 -3 0 4 10 0 22 -8
20 -14 24 -14 40 1 17 15 18 15 18 0 0 -10 6 -17 14 -17 9 0 12 7 9 20 -6 23
-33 49 -33 31 0 -16 -41 -14 -54 3 -10 13 -13 13 -25 0z"/>
<path d="M770 1324 c-15 -38 -13 -127 3 -121 6 2 11 10 9 16 -4 19 40 49 70
49 15 -1 34 5 43 12 14 12 12 15 -17 27 -18 8 -43 12 -56 10 -12 -2 -25 0 -28
4 -3 5 0 9 6 9 6 0 8 5 5 10 -11 17 -25 11 -35 -16z m37 -30 c-3 -3 -12 -4
-19 -1 -8 3 -5 6 6 6 11 1 17 -2 13 -5z"/>
<path d="M1376 1338 c-20 -11 -21 -28 0 -28 8 0 13 4 10 9 -3 4 6 7 19 5 14
-1 25 1 25 6 0 13 -36 18 -54 8z"/>
<path d="M1147 1334 c-6 -7 -34 -12 -64 -13 -17 -1 -20 -5 -15 -23 5 -19 7
-20 10 -5 2 9 9 18 15 18 47 6 95 5 109 -2 12 -7 15 -5 11 10 -4 17 -53 28
-66 15z"/>
<path d="M930 1299 c-11 -8 -3 -9 33 -5 29 4 47 2 47 -5 0 -6 5 -7 10 -4 19
12 -1 25 -38 25 -20 0 -44 -5 -52 -11z"/>
<path d="M1381 1284 c0 -11 3 -14 6 -6 3 7 2 16 -1 19 -3 4 -6 -2 -5 -13z"/>
<path d="M1250 1280 c0 -5 5 -10 11 -10 5 0 7 5 4 10 -3 6 -8 10 -11 10 -2 0
-4 -4 -4 -10z"/>
<path d="M1351 1274 c0 -11 3 -14 6 -6 3 7 2 16 -1 19 -3 4 -6 -2 -5 -13z"/>
<path d="M1316 1261 c-4 -5 -2 -12 3 -15 5 -4 12 -2 15 3 4 5 2 12 -3 15 -5 4
-12 2 -15 -3z"/>
<path d="M1364 1205 c-9 -9 -5 -14 17 -22 22 -9 29 -8 33 4 4 8 13 12 23 9 10
-3 29 1 43 9 18 10 20 14 8 15 -9 0 -20 -5 -24 -11 -4 -8 -9 -7 -15 2 -6 10
-12 9 -29 -6 -20 -18 -23 -18 -34 -4 -9 13 -14 14 -22 4z"/>
<path d="M760 1175 c0 -8 2 -15 4 -15 2 0 6 7 10 15 3 8 1 15 -4 15 -6 0 -10
-7 -10 -15z"/>
<path d="M1115 1180 c3 -5 10 -10 16 -10 5 0 9 5 9 10 0 6 -7 10 -16 10 -8 0
-12 -4 -9 -10z"/>
<path d="M1561 1174 c0 -11 3 -14 6 -6 3 7 2 16 -1 19 -3 4 -6 -2 -5 -13z"/>
<path d="M1093 1165 c0 -8 4 -12 9 -9 5 3 6 10 3 15 -9 13 -12 11 -12 -6z"/>
<path d="M783 1145 c4 -8 2 -17 -3 -20 -5 -3 -11 3 -13 12 -3 13 -5 12 -6 -6
-1 -17 3 -22 15 -17 9 3 18 6 20 6 2 0 4 6 4 14 0 8 6 17 13 19 6 3 1 6 -12 6
-16 1 -22 -3 -18 -14z"/>
<path d="M820 1135 c-7 -9 -10 -18 -7 -21 3 -3 10 4 17 15 13 25 8 27 -10 6z"/>
<path d="M0 1124 c0 -8 5 -12 10 -9 6 3 10 10 10 16 0 5 -4 9 -10 9 -5 0 -10
-7 -10 -16z"/>
<path d="M1260 1086 c0 -23 16 -27 17 -5 1 10 -2 19 -8 19 -5 0 -9 -6 -9 -14z"/>
<path d="M1297 1031 c-2 -10 -1 -24 3 -30 4 -7 7 1 8 18 1 35 -3 40 -11 12z"/>
<path d="M1346 1037 c3 -10 9 -15 12 -12 3 3 0 11 -7 18 -10 9 -11 8 -5 -6z"/>
<path d="M1318 992 c-7 -27 -1 -52 14 -52 5 0 6 -4 3 -10 -3 -5 0 -10 9 -10
16 0 16 21 -1 41 -6 8 -13 23 -15 34 -3 18 -4 18 -10 -3z"/>
<path d="M1438 943 c7 -3 16 -2 19 1 4 3 -2 6 -13 5 -11 0 -14 -3 -6 -6z"/>
<path d="M1414 918 c-5 -7 -2 -9 8 -5 9 3 22 0 29 -6 11 -10 11 -9 0 6 -16 20
-27 22 -37 5z"/>
<path d="M1288 843 c-3 -11 0 -20 6 -20 6 -1 27 -4 46 -8 26 -5 31 -4 20 4 -8
6 -21 11 -29 11 -8 0 -19 7 -26 16 -11 15 -12 15 -17 -3z"/>
<path d="M1200 840 c-13 -8 -12 -10 3 -10 9 0 17 5 17 10 0 12 -1 12 -20 0z"/>
<path d="M1530 820 c-12 -8 -10 -10 8 -10 13 0 20 4 17 10 -7 12 -6 12 -25 0z"/>
<path d="M2560 825 c0 -2 7 -8 15 -15 12 -10 15 -10 15 2 0 8 -7 15 -15 15 -8
0 -15 -1 -15 -2z"/>
<path d="M766 805 c4 -8 8 -15 10 -15 2 0 4 7 4 15 0 8 -4 15 -10 15 -5 0 -7
-7 -4 -15z"/>
<path d="M2560 790 c0 -6 5 -10 11 -10 5 0 7 -4 4 -10 -3 -5 -1 -10 4 -10 17
0 13 27 -4 34 -8 3 -15 1 -15 -4z"/>
<path d="M1420 759 c0 -5 5 -7 10 -4 6 3 10 8 10 11 0 2 -4 4 -10 4 -5 0 -10
-5 -10 -11z"/>
</g>
</svg>
